if (_typeface_js && _typeface_js.loadFace) _typeface_js.loadFace({"glyphs":{"0":{"ha":861,"x_min":35,"x_max":836,"o":"m 35 481 q 59 302 35 390 q 133 144 83 214 q 258 30 182 74 q 439 -14 335 -14 q 607 31 533 -14 q 732 147 681 75 q 810 309 783 218 q 836 494 836 400 q 813 676 836 588 q 742 832 790 764 q 619 942 694 900 q 440 983 544 983 q 266 940 342 983 q 139 825 190 896 q 61 664 88 754 q 35 481 35 574 m 425 928 q 490 906 461 928 q 540 848 518 885 q 578 764 563 811 q 604 664 594 717 q 619 557 614 611 q 624 454 624 503 q 612 287 624 363 q 577 157 600 211 q 522 72 554 103 q 447 42 489 42 q 356 88 393 42 q 294 206 318 135 q 259 359 269 276 q 249 515 249 442 q 260 683 249 607 q 295 813 272 758 q 351 897 318 867 q 425 928 383 928 z "},"1":{"ha":861,"x_min":174,"x_max":618,"o":"m 618 994 l 174 931 l 181 882 l 340 903 l 340 0 l 618 0 l 618 994 z "},"2":{"ha":861,"x_min":99,"x_max":821,"o":"m 121 750 l 225 750 q 243 792 231 771 q 274 832 256 814 q 321 862 293 850 q 386 874 349 874 q 504 836 465 874 q 543 735 543 799 q 522 625 543 669 q 463 533 501 581 l 99 78 l 99 0 l 821 0 l 821 104 l 431 104 l 724 472 q 763 526 746 500 q 791 581 779 553 q 809 643 803 610 q 815 719 815 676 q 788 830 815 782 q 711 911 760 878 q 597 961 663 944 q 457 978 532 978 q 315 957 374 978 q 215 903 256 936 q 152 829 175 869 q 121 750 129 789 z "},"3":{"ha":861,"x_min":133,"x_max":774,"o":"m 133 972 l 133 868 l 406 868 l 208 594 l 400 594 q 486 572 456 594 q 517 515 517 550 q 506 464 517 483 q 478 422 496 444 l 146 0 l 431 0 l 726 386 q 764 458 754 422 q 774 529 774 493 q 759 598 774 567 q 719 651 744 629 q 658 686 693 674 q 581 699 622 699 l 499 699 l 733 972 l 133 972 z "},"4":{"ha":861,"x_min":11,"x_max":850,"o":"m 733 972 l 506 972 l 11 363 l 11 275 l 456 275 l 456 0 l 733 0 l 733 275 l 850 275 l 850 379 l 733 379 l 733 972 m 456 379 l 157 379 l 456 747 l 456 379 z "},"5":{"ha":861,"x_min":113,"x_max":765,"o":"m 590 681 l 413 681 l 413 813 q 467 868 413 868 l 732 868 l 732 972 l 226 972 q 160 947 185 972 q 135 882 135 922 l 135 578 l 403 578 q 468 557 444 578 q 492 504 492 536 q 485 463 492 485 q 464 422 479 442 l 113 0 l 403 0 l 707 381 q 751 454 736 417 q 765 540 765 492 q 717 644 765 607 q 590 681 669 681 z "},"6":{"ha":861,"x_min":33,"x_max":818,"o":"m 576 972 l 299 972 l 104 585 q 55 460 76 528 q 33 310 33 392 q 56 185 33 244 q 126 79 79 125 q 246 6 174 33 q 417 -21 318 -21 q 594 7 518 -21 q 719 81 669 35 q 794 185 769 126 q 818 303 818 243 q 797 408 818 357 q 733 497 775 458 q 629 560 690 536 q 489 583 568 583 q 426 576 457 583 q 374 560 394 569 l 576 972 m 288 290 q 296 361 288 328 q 321 419 304 394 q 362 460 338 444 q 418 475 386 475 q 478 458 451 475 q 522 413 504 442 q 549 349 539 385 q 558 274 558 313 q 551 205 558 239 q 526 144 543 171 q 484 100 510 117 q 424 83 458 83 q 362 102 388 83 q 319 151 336 121 q 295 217 303 181 q 288 290 288 254 z "},"7":{"ha":861,"x_min":122,"x_max":792,"o":"m 722 972 l 122 972 l 122 868 l 436 868 q 490 826 490 868 q 486 800 490 814 l 224 0 l 500 0 l 785 881 q 792 915 792 901 q 722 972 792 972 z "},"8":{"ha":861,"x_min":68,"x_max":788,"o":"m 722 746 q 701 840 722 797 q 642 914 681 883 q 549 962 604 944 q 425 979 493 979 q 301 960 356 979 q 208 909 246 942 q 149 833 169 876 q 128 739 128 789 q 144 667 128 700 q 188 611 161 635 q 244 573 214 588 q 301 556 274 558 q 233 534 274 553 q 156 481 193 515 q 94 394 119 446 q 68 272 68 343 q 92 159 68 213 q 163 65 117 106 q 276 -1 210 24 q 428 -25 343 -25 q 576 -1 510 -25 q 690 65 643 24 q 762 160 736 106 q 788 275 788 214 q 760 395 788 344 q 692 480 732 446 q 611 533 653 514 q 542 556 569 551 q 599 574 567 560 q 658 612 631 588 q 703 669 685 636 q 722 746 722 703 m 533 758 q 528 694 533 726 q 513 635 524 661 q 481 592 501 608 q 432 576 461 576 q 384 592 406 576 q 348 632 363 607 q 326 690 333 657 q 318 758 318 722 q 324 823 318 790 q 342 881 329 856 q 373 924 354 907 q 418 940 392 940 q 463 925 442 940 q 499 885 483 910 q 524 826 515 860 q 533 758 533 793 m 300 272 q 306 365 300 319 q 327 446 313 410 q 363 504 342 482 q 417 526 385 526 q 472 505 447 526 q 515 448 497 483 q 541 367 532 413 q 550 272 550 321 q 544 181 550 226 q 523 100 538 136 q 486 42 508 64 q 433 19 464 19 q 377 41 401 19 q 335 98 353 63 q 309 178 318 133 q 300 272 300 224 z "},"9":{"ha":861,"x_min":46,"x_max":819,"o":"m 358 392 q 417 396 393 392 q 460 407 440 400 l 271 0 l 549 0 l 738 413 q 792 543 765 474 q 819 694 819 613 q 790 809 819 757 q 708 900 760 861 q 585 960 656 939 q 433 982 514 982 q 284 960 354 982 q 161 898 214 938 q 77 802 108 858 q 46 679 46 746 q 69 561 46 614 q 133 471 92 508 q 231 413 174 433 q 358 392 289 392 m 308 697 q 315 763 308 731 q 336 822 322 796 q 372 863 350 847 q 426 878 394 878 q 482 863 457 878 q 524 822 507 847 q 549 763 540 796 q 558 697 558 731 q 551 631 558 664 q 531 573 544 599 q 494 532 517 547 q 440 517 471 517 q 384 532 408 517 q 343 573 360 547 q 317 631 326 599 q 308 697 308 664 z "},"\u0007":{"ha":694,"x_min":0,"x_max":0,"o":""},"\u0005":{"ha":403,"x_min":56,"x_max":358,"o":"m 208 868 q 291 883 251 868 q 358 928 331 897 l 329 963 q 207 918 274 918 q 85 963 142 918 l 56 928 q 124 883 83 897 q 208 868 164 868 z "},"\u0006":{"ha":382,"x_min":85,"x_max":304,"o":"m 304 917 q 272 994 304 963 q 194 1026 240 1026 q 117 994 149 1026 q 85 917 85 963 q 117 839 85 871 q 194 807 149 807 q 272 839 240 807 q 304 917 304 871 z "},"\b":{"ha":306,"x_min":36,"x_max":269,"o":"m 269 922 q 235 1005 269 971 q 153 1039 201 1039 q 70 1005 104 1039 q 36 922 36 971 q 70 840 36 874 q 153 806 104 806 q 235 840 201 806 q 269 922 269 874 m 81 922 q 101 974 81 953 q 153 994 122 994 q 204 974 183 994 q 225 922 225 953 q 204 871 225 892 q 153 850 183 850 q 101 871 122 850 q 81 922 81 892 z "},"\n":{"ha":360,"x_min":44,"x_max":338,"o":"m 86 1022 q 78 988 83 1014 q 67 928 72 963 q 55 856 61 894 q 44 782 49 817 q 100 857 74 821 q 147 923 126 893 q 178 974 167 953 q 190 1008 190 996 q 175 1048 190 1036 q 140 1060 160 1060 q 104 1051 115 1060 q 86 1022 93 1042 m 233 1022 q 225 988 231 1014 q 214 928 219 963 q 202 856 208 894 q 192 782 196 817 q 247 857 221 821 q 294 923 274 893 q 326 974 314 953 q 338 1008 338 996 q 322 1048 338 1036 q 288 1060 307 1060 q 251 1051 263 1060 q 233 1022 240 1042 z "},"\u000b":{"ha":243,"x_min":46,"x_max":207,"o":"m 96 -117 q 115 -57 96 -82 q 163 0 133 -32 l 119 0 q 94 -24 107 -11 q 71 -52 82 -37 q 53 -83 60 -67 q 46 -117 46 -99 q 72 -180 46 -156 q 143 -204 99 -204 q 207 -192 171 -204 l 190 -161 q 171 -167 181 -165 q 153 -168 161 -168 q 112 -154 128 -168 q 96 -117 96 -140 z "},"\f":{"ha":424,"x_min":33,"x_max":389,"o":"m 240 735 l 389 894 l 344 894 l 213 797 l 81 894 l 33 894 l 183 735 l 240 735 z "},"\r":{"ha":372,"x_min":83,"x_max":292,"o":"m 292 681 l 83 681 l 83 0 l 292 0 l 292 681 z "},"\u0019":{"ha":826,"x_min":26,"x_max":786,"o":"m 26 0 l 92 0 l 786 972 l 721 972 l 26 0 z "},"\u001a":{"ha":729,"x_min":82,"x_max":647,"o":"m 294 1042 q 140 988 199 1042 q 82 833 82 933 l 82 0 l 289 0 l 289 597 l 439 597 l 439 0 l 647 0 l 647 681 l 289 681 l 290 894 q 349 958 290 958 l 417 958 l 417 1042 l 294 1042 m 644 960 q 614 1033 644 1003 q 540 1064 583 1064 q 467 1033 497 1064 q 436 960 436 1003 q 467 886 436 917 q 540 856 497 856 q 614 886 583 856 q 644 960 644 917 z "},"\u001b":{"ha":822,"x_min":79,"x_max":799,"o":"m 290 924 q 315 983 290 963 q 369 1004 340 1004 q 409 996 393 1004 q 438 979 425 988 l 438 149 q 474 40 438 79 q 579 0 510 0 l 799 0 l 799 49 l 722 49 q 646 125 646 49 l 646 1042 l 438 1042 l 438 1024 q 386 1041 413 1035 q 324 1047 360 1047 q 135 1000 190 1047 q 79 871 79 953 l 79 0 l 290 0 l 290 592 l 394 592 l 394 681 l 290 681 l 290 924 z "},"\u001c":{"ha":806,"x_min":17,"x_max":756,"o":"m 85 463 l 17 411 l 17 300 l 85 351 l 85 0 l 756 0 l 756 104 l 363 104 l 363 539 l 507 647 l 507 758 l 363 650 l 363 972 l 85 972 l 85 463 z "},"\u001d":{"ha":506,"x_min":17,"x_max":451,"o":"m 83 461 l 17 411 l 17 300 l 83 350 l 83 154 q 126 35 83 71 q 257 0 169 0 l 451 0 l 451 83 l 389 83 q 315 101 338 83 q 292 160 292 118 l 292 486 l 396 564 l 396 675 l 292 597 l 292 1042 l 83 1042 l 83 461 z "},"\u001e":{"ha":979,"x_min":60,"x_max":901,"o":"m 901 972 l 101 972 l 101 868 l 528 868 l 60 0 l 901 0 l 901 104 l 431 104 l 901 972 m 532 1021 l 681 1172 l 636 1172 l 504 1075 l 372 1172 l 325 1172 l 475 1021 l 532 1021 z "},"\u001f":{"ha":761,"x_min":29,"x_max":657,"o":"m 57 681 l 57 597 l 294 597 q 347 561 347 597 q 335 521 347 543 l 29 0 l 657 0 l 657 83 l 383 83 q 349 92 360 83 q 339 113 339 100 q 350 146 339 128 l 582 556 q 606 628 606 597 q 536 681 606 681 l 57 681 m 365 743 l 514 894 l 469 894 l 338 797 l 206 894 l 158 894 l 308 743 l 365 743 z "}," ":{"ha":422,"x_min":0,"x_max":0,"o":""},"!":{"ha":382,"x_min":89,"x_max":322,"o":"m 322 828 q 289 933 322 897 q 204 969 256 969 q 121 932 153 969 q 89 828 89 894 q 93 778 89 813 q 103 699 97 743 q 117 604 110 654 q 133 507 125 554 q 147 421 140 460 q 157 360 153 382 q 169 310 161 329 q 204 290 178 290 q 239 310 231 290 q 251 360 247 331 q 261 419 254 381 q 276 505 268 458 q 292 601 283 551 q 307 697 300 651 q 318 777 314 742 q 322 828 322 813 m 315 93 q 283 172 315 139 q 204 204 250 204 q 126 172 158 204 q 93 93 93 139 q 126 15 93 47 q 204 -18 158 -18 q 283 15 250 -18 q 315 93 315 47 z "},"\"":{"ha":517,"x_min":74,"x_max":444,"o":"m 74 931 q 80 889 74 918 q 97 823 86 860 q 118 744 107 786 q 140 664 129 703 q 163 746 151 704 q 185 824 175 788 q 201 890 194 861 q 207 931 207 918 q 186 977 207 960 q 140 994 165 994 q 94 977 115 994 q 74 931 74 960 m 311 931 q 317 889 311 918 q 334 823 324 860 q 356 744 344 786 q 378 664 367 703 q 401 746 389 704 q 422 824 413 788 q 438 890 432 861 q 444 931 444 918 q 424 977 444 960 q 378 994 403 994 q 332 977 353 994 q 311 931 311 960 z "},"#":{"ha":819,"x_min":67,"x_max":765,"o":"m 392 706 l 450 876 l 346 876 l 290 706 l 139 706 l 128 672 l 279 672 l 226 517 l 76 517 l 67 483 l 215 483 l 158 311 l 261 311 l 318 483 l 442 483 l 382 306 l 485 306 l 544 483 l 690 483 l 701 517 l 556 517 l 607 672 l 753 672 l 765 706 l 618 706 l 676 876 l 574 876 l 517 706 l 392 706 m 329 517 l 382 672 l 506 672 l 453 517 l 329 517 z "},"$":{"ha":863,"x_min":54,"x_max":819,"o":"m 400 671 q 347 708 368 683 q 325 776 325 732 q 360 845 325 821 q 446 872 394 869 l 400 671 m 564 863 l 510 619 q 474 634 493 626 q 443 649 454 642 l 494 874 q 528 870 511 872 q 564 863 544 868 m 414 -7 q 562 8 489 -7 q 692 58 635 24 q 785 150 750 93 q 819 289 819 207 q 791 418 819 365 q 721 506 763 471 q 633 565 679 542 q 551 603 586 588 l 607 844 q 650 815 631 833 q 681 778 669 797 l 764 833 q 706 896 736 869 q 629 943 675 922 l 649 1035 l 603 1035 l 586 958 q 551 968 571 964 q 517 974 532 972 l 529 1035 l 482 1035 l 469 978 q 317 963 390 978 q 188 915 244 947 q 98 833 132 883 q 64 710 64 782 q 87 608 64 651 q 149 533 110 565 q 239 477 188 501 q 346 432 290 453 l 276 125 q 192 176 224 146 q 142 244 160 207 l 54 201 q 131 104 79 153 q 256 28 182 56 l 231 -83 l 278 -83 l 299 11 q 367 -4 335 0 l 350 -83 l 397 -83 l 414 -7 m 390 97 q 321 110 351 100 l 390 417 q 424 403 406 411 q 456 388 443 396 l 390 97 m 496 358 q 540 306 524 336 q 556 240 556 275 q 522 146 556 186 q 439 100 488 106 l 496 358 z "},"%":{"ha":1300,"x_min":64,"x_max":1250,"o":"m 656 722 q 638 821 656 772 q 583 908 619 869 q 491 969 547 946 q 360 993 435 993 q 231 970 286 993 q 138 909 175 947 q 83 822 101 871 q 64 722 64 774 q 82 624 64 672 q 137 538 100 575 q 229 476 174 500 q 360 453 285 453 q 489 476 433 453 q 581 537 544 499 q 637 624 618 575 q 656 722 656 672 m 232 722 q 241 813 232 768 q 267 891 250 857 q 307 947 283 925 q 360 968 331 968 q 413 947 389 968 q 453 892 436 926 q 478 813 469 857 q 488 722 488 768 q 481 633 488 676 q 460 555 475 589 q 420 499 444 521 q 360 478 396 478 q 302 499 326 478 q 263 554 278 519 q 240 633 247 589 q 232 722 232 676 m 197 0 l 263 0 l 1101 972 l 1036 972 l 197 0 m 1250 264 q 1232 363 1250 314 q 1178 449 1214 411 q 1085 511 1142 488 q 954 535 1029 535 q 825 512 881 535 q 733 451 769 489 q 677 364 696 413 q 658 264 658 315 q 676 165 658 214 q 731 79 694 117 q 824 18 768 42 q 954 -6 879 -6 q 1083 17 1028 -6 q 1176 78 1139 40 q 1231 165 1213 117 q 1250 264 1250 214 m 826 264 q 835 354 826 310 q 861 433 844 399 q 901 488 878 467 q 954 510 925 510 q 1007 489 983 510 q 1047 433 1031 468 q 1073 354 1064 399 q 1082 264 1082 310 q 1076 174 1082 218 q 1054 97 1069 131 q 1015 41 1039 63 q 954 19 990 19 q 897 40 921 19 q 857 96 872 61 q 834 174 842 131 q 826 264 826 218 z "},"&":{"ha":1044,"x_min":51,"x_max":1024,"o":"m 764 0 l 1024 0 l 817 217 q 857 274 842 246 q 880 328 872 303 q 890 377 888 354 q 892 418 892 400 q 889 453 892 436 q 882 486 886 469 l 800 486 q 810 418 810 457 q 800 347 810 386 q 760 276 790 307 l 490 558 q 553 592 519 572 q 614 638 586 611 q 660 700 642 665 q 679 781 679 735 q 612 925 679 872 q 424 978 544 978 q 311 960 363 978 q 224 910 260 942 q 167 837 188 879 q 147 746 147 794 q 163 654 147 699 q 217 571 179 610 l 258 528 q 184 481 221 507 q 117 422 147 456 q 69 347 88 389 q 51 254 51 306 q 70 151 51 200 q 128 66 89 103 q 226 7 167 29 q 367 -15 285 -15 q 486 -7 438 -15 q 569 15 535 1 q 631 47 604 29 q 683 82 657 64 l 764 0 m 575 782 q 564 730 575 753 q 533 688 553 707 q 485 654 513 669 q 428 624 458 639 l 369 685 q 339 735 347 708 q 331 788 331 761 q 361 861 331 828 q 444 894 392 894 q 537 864 499 894 q 575 782 575 833 m 246 338 q 271 414 246 382 q 321 463 296 446 l 619 150 q 558 114 594 131 q 483 97 521 97 q 390 117 433 97 q 314 169 346 136 q 264 245 282 201 q 246 338 246 289 z "},"'":{"ha":292,"x_min":82,"x_max":215,"o":"m 82 931 q 88 889 82 918 q 105 823 94 860 q 126 744 115 786 q 149 664 138 703 q 172 746 160 704 q 193 824 183 788 q 209 890 203 861 q 215 931 215 918 q 194 977 215 960 q 149 994 174 994 q 103 977 124 994 q 82 931 82 960 z "},"(":{"ha":382,"x_min":58,"x_max":338,"o":"m 322 1075 q 294 1060 308 1075 q 115 793 172 935 q 58 494 58 651 q 110 192 58 340 q 279 -94 161 43 q 315 -117 300 -117 q 329 -101 329 -117 q 326 -86 329 -97 q 249 210 274 69 q 225 494 225 351 q 250 768 225 631 q 335 1047 275 906 q 338 1061 338 1058 q 322 1075 338 1075 z "},")":{"ha":382,"x_min":50,"x_max":329,"o":"m 329 494 q 272 793 329 651 q 93 1060 215 935 q 65 1075 79 1075 q 50 1061 50 1075 q 53 1047 50 1058 q 138 768 113 906 q 163 494 163 631 q 138 210 163 351 q 61 -86 114 69 q 58 -101 58 -97 q 72 -117 58 -117 q 108 -94 88 -117 q 278 192 226 43 q 329 494 329 340 z "},"*":{"ha":465,"x_min":56,"x_max":417,"o":"m 246 821 q 277 790 258 807 q 315 757 296 772 q 354 731 335 742 q 389 721 374 721 q 417 744 417 721 q 397 774 417 760 q 351 799 378 788 q 297 820 325 811 q 253 835 269 829 q 299 850 271 840 q 353 871 326 860 q 398 896 379 882 q 417 925 417 910 q 389 949 417 949 q 355 938 374 949 q 317 913 336 928 q 278 881 297 899 q 246 849 260 863 q 259 919 253 892 q 265 979 265 947 q 258 1022 265 1006 q 236 1038 251 1038 q 213 1022 221 1038 q 206 983 206 1007 q 213 919 206 947 q 226 849 219 892 q 190 883 208 865 q 152 915 171 900 q 116 938 133 929 q 83 947 99 947 q 63 940 69 947 q 56 924 56 933 q 74 895 56 908 q 117 870 92 882 q 170 849 142 858 q 219 835 199 840 q 172 819 200 828 q 117 800 143 811 q 74 775 92 789 q 56 746 56 761 q 64 728 56 735 q 83 722 72 722 q 122 733 101 722 q 161 760 142 744 q 198 793 181 776 q 226 821 215 810 q 213 759 219 788 q 206 686 206 731 q 213 647 206 663 q 236 632 221 632 q 258 648 251 632 q 265 690 265 664 q 259 758 265 731 q 246 821 253 785 z "},"+":{"ha":600,"x_min":68,"x_max":542,"o":"m 264 408 l 68 408 l 68 325 l 264 325 l 264 144 l 339 144 l 339 325 l 542 325 l 542 408 l 339 408 l 339 589 l 264 589 l 264 408 z "},",":{"ha":403,"x_min":18,"x_max":321,"o":"m 146 136 q 121 73 136 118 q 88 -31 106 28 q 53 -156 71 -90 q 18 -279 35 -221 q 108 -187 61 -236 q 196 -94 154 -139 q 269 -13 238 -50 q 311 43 300 24 q 321 83 321 61 q 295 152 321 125 q 225 179 269 179 q 181 169 203 179 q 146 136 160 160 z "},"-":{"ha":497,"x_min":96,"x_max":408,"o":"m 408 394 l 96 394 l 96 325 l 408 325 l 408 394 z "},".":{"ha":403,"x_min":94,"x_max":314,"o":"m 314 96 q 282 174 314 142 q 204 206 250 206 q 126 174 158 206 q 94 96 94 142 q 126 18 94 50 q 204 -14 158 -14 q 282 18 250 -14 q 314 96 314 50 z "},"/":{"ha":497,"x_min":-8,"x_max":522,"o":"m -8 -69 l 92 -69 l 522 1021 l 422 1021 l -8 -69 z "},":":{"ha":403,"x_min":94,"x_max":314,"o":"m 314 96 q 282 174 314 142 q 204 206 250 206 q 126 174 158 206 q 94 96 94 142 q 126 18 94 50 q 204 -14 158 -14 q 282 18 250 -14 q 314 96 314 50 m 314 554 q 282 632 314 600 q 204 664 250 664 q 126 632 158 664 q 94 554 94 600 q 126 476 94 508 q 204 444 158 444 q 282 476 250 444 q 314 554 314 508 z "},";":{"ha":396,"x_min":29,"x_max":332,"o":"m 157 136 q 132 73 147 118 q 99 -31 117 28 q 64 -156 82 -90 q 29 -279 46 -221 q 119 -187 72 -236 q 207 -94 165 -139 q 280 -13 249 -50 q 322 43 311 24 q 332 83 332 61 q 306 152 332 125 q 236 179 281 179 q 192 169 214 179 q 157 136 171 160 m 314 554 q 282 632 314 600 q 204 664 250 664 q 126 632 158 664 q 94 554 94 600 q 126 476 94 508 q 204 444 158 444 q 282 476 250 444 q 314 554 314 508 z "},"<":{"ha":556,"x_min":50,"x_max":501,"o":"m 397 604 l 50 347 l 397 97 l 501 97 l 251 347 l 501 604 l 397 604 z "},"=":{"ha":600,"x_min":96,"x_max":513,"o":"m 513 485 l 96 485 l 96 415 l 513 415 l 513 485 m 513 297 l 96 297 l 96 228 l 513 228 l 513 297 z "},">":{"ha":556,"x_min":65,"x_max":517,"o":"m 65 97 l 169 97 l 517 347 l 169 604 l 65 604 l 315 347 l 65 97 z "},"?":{"ha":765,"x_min":67,"x_max":701,"o":"m 424 751 q 404 649 424 690 q 354 580 385 607 q 287 536 324 553 q 214 510 250 519 l 251 263 l 331 263 l 375 435 q 472 465 417 446 q 579 517 528 483 q 666 604 631 551 q 701 739 701 657 q 677 842 701 797 q 609 919 653 888 q 504 967 565 950 q 371 983 443 983 q 234 960 289 983 q 144 903 179 938 q 91 828 108 869 q 67 750 74 788 l 171 750 q 185 797 176 774 q 210 838 194 819 q 249 868 226 857 q 304 879 272 879 q 395 842 367 879 q 424 751 424 804 m 397 96 q 365 174 397 142 q 288 206 333 206 q 210 174 242 206 q 178 96 178 142 q 210 18 178 50 q 288 -14 242 -14 q 365 18 333 -14 q 397 96 397 50 z "},"@":{"ha":1078,"x_min":57,"x_max":1032,"o":"m 742 272 l 742 678 l 528 678 q 440 666 483 678 q 362 628 397 654 q 305 561 326 601 q 283 464 283 521 q 352 303 283 360 q 533 246 421 246 l 726 246 q 840 257 785 246 q 938 298 896 268 q 1006 379 981 328 q 1032 511 1032 431 q 997 683 1032 604 q 898 821 961 763 q 747 912 835 879 q 556 944 660 944 q 358 910 449 944 q 200 813 267 875 q 95 664 133 750 q 57 475 57 578 q 92 303 57 385 q 189 157 126 221 q 339 56 251 93 q 533 18 426 18 q 724 45 646 18 q 853 100 803 72 l 815 150 q 763 124 794 136 q 693 101 731 111 q 614 86 656 92 q 533 81 572 81 q 375 110 450 81 q 243 194 300 140 q 153 319 186 247 q 119 475 119 392 q 153 639 119 564 q 244 768 186 714 q 383 852 303 822 q 556 882 463 882 q 729 853 653 882 q 859 776 806 825 q 941 658 913 726 q 969 511 969 590 q 949 391 969 438 q 897 318 929 344 q 823 282 864 292 q 742 272 782 272 m 619 654 l 619 272 l 551 272 q 502 285 526 272 q 459 324 478 299 q 429 384 440 349 q 418 464 418 419 q 430 547 418 511 q 460 606 442 582 q 502 642 479 631 q 547 654 525 654 l 619 654 z "},"A":{"ha":1111,"x_min":35,"x_max":1076,"o":"m 451 972 l 35 0 l 143 0 l 267 289 l 663 289 l 788 0 l 1076 0 l 660 972 l 451 972 m 465 751 l 619 393 l 311 393 l 465 751 z "},"B":{"ha":994,"x_min":90,"x_max":913,"o":"m 90 972 l 90 0 l 578 0 q 714 19 653 0 q 819 74 775 38 q 888 162 864 110 q 913 279 913 214 q 894 375 913 331 q 844 452 875 419 q 771 503 813 485 q 682 525 729 522 q 831 588 779 531 q 883 724 883 644 q 861 828 883 782 q 798 906 839 874 q 701 956 757 939 q 578 972 644 972 l 90 972 m 368 563 l 368 868 l 481 868 q 540 855 515 868 q 580 821 564 842 q 603 772 596 800 q 610 715 610 744 q 603 660 610 688 q 580 610 596 632 q 540 576 564 589 q 481 563 515 563 l 368 563 m 368 104 l 368 458 l 481 458 q 553 443 524 458 q 600 403 582 428 q 625 346 618 378 q 632 281 632 314 q 625 216 632 247 q 600 160 618 185 q 553 119 582 135 q 481 104 524 104 l 368 104 z "},"C":{"ha":1014,"x_min":56,"x_max":965,"o":"m 314 486 q 333 642 314 569 q 387 767 351 714 q 474 849 422 819 q 594 879 526 879 q 699 870 657 879 q 773 847 742 861 q 826 813 804 832 q 868 774 847 793 l 949 840 q 894 889 924 864 q 824 935 865 914 q 727 969 783 956 q 592 983 671 983 q 363 943 463 983 q 195 834 264 903 q 91 676 126 765 q 56 486 56 586 q 90 297 56 386 q 191 138 124 207 q 359 29 258 69 q 592 -11 460 -11 q 734 2 675 -11 q 835 37 793 15 q 908 85 878 58 q 965 138 939 111 l 886 206 q 840 162 865 182 q 782 126 815 142 q 703 102 749 111 q 594 93 657 93 q 474 124 526 93 q 387 207 422 154 q 333 332 351 260 q 314 486 314 404 z "},"D":{"ha":1125,"x_min":106,"x_max":1047,"o":"m 1047 486 q 1012 675 1047 586 q 910 830 976 764 q 748 934 843 896 q 532 972 653 972 l 106 972 l 106 0 l 532 0 q 749 39 653 0 q 911 144 844 78 q 1013 299 978 211 q 1047 486 1047 388 m 383 104 l 383 868 l 532 868 q 641 838 594 868 q 717 754 688 807 q 762 632 747 701 q 776 486 776 563 q 763 340 776 408 q 719 218 749 271 q 644 135 690 165 q 532 104 597 104 l 383 104 z "},"E":{"ha":868,"x_min":83,"x_max":804,"o":"m 790 868 l 790 972 l 83 972 l 83 0 l 804 0 l 804 104 l 361 104 l 361 449 l 776 449 l 776 553 l 361 553 l 361 868 l 790 868 z "},"F":{"ha":868,"x_min":83,"x_max":790,"o":"m 790 868 l 790 972 l 83 972 l 83 0 l 361 0 l 361 449 l 776 449 l 776 553 l 361 553 l 361 868 l 790 868 z "},"G":{"ha":1090,"x_min":56,"x_max":1021,"o":"m 314 486 q 332 637 314 565 q 385 763 350 708 q 472 848 419 817 q 590 879 524 879 q 690 872 649 879 q 764 851 732 864 q 820 817 796 838 q 868 772 844 797 l 949 840 q 894 891 925 865 q 822 937 864 917 q 725 970 781 957 q 593 983 669 983 q 369 944 469 983 q 200 839 269 906 q 93 681 131 772 q 56 486 56 590 q 90 297 56 386 q 192 138 125 207 q 358 29 260 69 q 585 -11 457 -11 q 731 0 665 -11 q 851 29 797 11 q 946 70 904 47 q 1021 117 988 93 l 1021 521 l 576 521 l 576 417 l 771 417 l 771 124 q 741 114 756 119 q 707 103 726 108 q 662 96 688 99 q 600 93 636 93 q 476 124 529 93 q 386 208 422 156 q 332 333 350 261 q 314 486 314 404 z "},"H":{"ha":965,"x_min":76,"x_max":890,"o":"m 354 553 l 354 972 l 76 972 l 76 0 l 354 0 l 354 449 l 613 449 l 613 0 l 890 0 l 890 972 l 613 972 l 613 553 l 354 553 z "},"I":{"ha":472,"x_min":100,"x_max":378,"o":"m 100 0 l 378 0 l 378 972 l 100 972 l 100 0 z "},"J":{"ha":653,"x_min":64,"x_max":574,"o":"m 574 972 l 296 972 l 296 229 q 267 139 296 174 q 171 104 238 104 l 64 104 l 64 0 l 282 0 q 501 63 428 0 q 574 243 574 125 l 574 972 z "},"K":{"ha":1139,"x_min":76,"x_max":1082,"o":"m 354 519 l 354 972 l 76 972 l 76 0 l 354 0 l 354 365 l 421 440 l 743 0 l 1082 0 l 614 647 l 918 972 l 778 972 l 354 519 z "},"L":{"ha":806,"x_min":85,"x_max":756,"o":"m 363 104 l 363 972 l 85 972 l 85 0 l 756 0 l 756 104 l 363 104 z "},"M":{"ha":1167,"x_min":76,"x_max":1092,"o":"m 76 972 l 76 0 l 181 0 l 181 643 l 499 -7 l 526 -7 l 814 643 l 814 0 l 1092 0 l 1092 972 l 850 972 l 603 414 l 331 972 l 76 972 z "},"N":{"ha":944,"x_min":81,"x_max":856,"o":"m 81 972 l 81 0 l 185 0 l 185 718 l 731 0 l 856 0 l 856 972 l 750 972 l 750 432 l 343 972 l 81 972 z "},"O":{"ha":1153,"x_min":46,"x_max":1107,"o":"m 1107 482 q 1074 667 1107 576 q 974 828 1040 757 q 809 942 908 899 q 576 986 710 986 q 344 943 443 986 q 178 829 244 900 q 79 667 113 758 q 46 482 46 576 q 79 297 46 388 q 178 136 113 207 q 344 22 244 65 q 576 -21 443 -21 q 809 22 710 -21 q 974 136 908 65 q 1074 297 1040 207 q 1107 482 1107 388 m 307 482 q 324 628 307 557 q 374 756 340 700 q 458 847 407 813 q 576 882 508 882 q 694 848 643 882 q 778 758 744 814 q 829 629 813 701 q 846 482 846 557 q 829 335 846 407 q 779 208 813 264 q 695 117 746 151 q 576 83 644 83 q 459 117 510 83 q 374 208 408 151 q 324 335 340 264 q 307 482 307 407 z "},"P":{"ha":972,"x_min":83,"x_max":935,"o":"m 935 724 q 913 824 935 778 q 852 903 892 869 q 758 954 813 936 q 636 972 703 972 l 83 972 l 83 0 l 361 0 l 361 475 l 636 475 q 758 493 703 475 q 852 544 813 511 q 913 624 892 578 q 935 724 935 669 m 660 724 q 651 669 660 696 q 624 623 642 643 q 581 591 606 603 q 522 579 556 579 l 361 579 l 361 868 l 522 868 q 624 826 588 868 q 660 724 660 783 z "},"Q":{"ha":1153,"x_min":46,"x_max":1107,"o":"m 846 482 q 838 377 846 429 q 812 278 829 325 q 769 193 794 232 q 710 128 743 154 l 664 194 l 476 194 l 554 85 q 446 126 492 90 q 369 218 400 163 q 322 342 338 274 q 307 482 307 411 q 324 628 307 557 q 374 756 340 700 q 458 847 407 813 q 576 882 508 882 q 694 848 643 882 q 778 758 744 814 q 829 629 813 701 q 846 482 846 557 m 576 -21 q 603 -21 590 -21 q 628 -19 615 -21 l 739 -175 l 924 -175 l 790 15 q 928 94 869 44 q 1027 206 988 144 q 1087 339 1067 268 q 1107 482 1107 410 q 1074 667 1107 576 q 974 828 1040 757 q 809 942 908 899 q 576 986 710 986 q 344 943 443 986 q 178 829 244 900 q 79 667 113 758 q 46 482 46 576 q 79 297 46 388 q 178 136 113 207 q 344 22 244 65 q 576 -21 443 -21 z "},"R":{"ha":1017,"x_min":83,"x_max":978,"o":"m 361 0 l 361 917 l 493 917 q 563 901 532 917 q 616 858 594 885 q 649 795 638 831 q 660 721 660 760 q 649 647 660 682 q 616 584 638 611 q 563 541 594 557 q 493 525 532 525 l 385 525 l 665 0 l 978 0 l 717 494 q 803 525 765 503 q 867 578 842 547 q 906 645 893 608 q 919 721 919 682 q 901 812 919 767 q 842 892 883 857 q 734 950 801 928 q 569 972 667 972 l 83 972 l 83 0 l 361 0 z "},"S":{"ha":863,"x_min":43,"x_max":815,"o":"m 675 786 l 763 844 q 713 894 742 869 q 645 940 683 919 q 558 973 607 960 q 449 986 510 986 q 283 966 356 986 q 161 908 211 946 q 85 819 111 871 q 58 706 58 768 q 84 594 58 639 q 153 518 110 550 q 255 463 197 486 q 378 418 313 440 q 498 344 458 392 q 538 242 538 297 q 530 190 538 217 q 504 142 522 164 q 454 106 486 119 q 375 92 422 92 q 301 103 338 92 q 232 135 264 115 q 175 181 200 154 q 136 239 150 208 l 43 192 q 94 119 61 156 q 176 53 128 82 q 287 5 224 24 q 428 -14 350 -14 q 582 6 511 -14 q 705 63 653 25 q 786 157 757 101 q 815 283 815 213 q 794 402 815 351 q 735 491 774 453 q 643 558 697 529 q 522 613 589 588 q 453 640 486 626 q 394 672 419 654 q 352 714 368 690 q 336 771 336 738 q 371 849 336 815 q 464 882 406 882 q 588 856 536 882 q 675 786 640 831 z "},"T":{"ha":822,"x_min":36,"x_max":786,"o":"m 786 972 l 36 972 l 36 868 l 272 868 l 272 0 l 550 0 l 550 868 l 786 868 l 786 972 z "},"U":{"ha":944,"x_min":74,"x_max":875,"o":"m 351 275 l 351 972 l 74 972 l 74 325 q 107 181 74 243 q 198 74 140 118 q 332 8 256 31 q 496 -14 408 -14 q 644 5 575 -14 q 765 63 714 24 q 846 165 817 103 q 875 315 875 228 l 875 972 l 771 972 l 771 278 q 754 207 771 239 q 710 152 738 175 q 643 117 682 129 q 561 104 604 104 q 478 116 517 104 q 413 149 440 128 q 368 203 385 171 q 351 275 351 235 z "},"V":{"ha":900,"x_min":28,"x_max":879,"o":"m 328 972 l 28 972 l 449 -21 l 879 972 l 765 972 l 543 463 l 328 972 z "},"W":{"ha":1289,"x_min":18,"x_max":1269,"o":"m 765 972 l 461 972 l 601 654 l 535 474 l 319 972 l 18 972 l 456 -36 l 661 517 l 897 -29 l 1269 972 l 1158 972 l 975 485 l 765 972 z "},"X":{"ha":889,"x_min":14,"x_max":868,"o":"m 331 972 l 14 972 l 318 414 l 22 0 l 150 0 l 372 313 l 543 0 l 857 0 l 564 540 l 868 972 l 742 972 l 508 644 l 331 972 z "},"Y":{"ha":847,"x_min":17,"x_max":832,"o":"m 339 972 l 17 972 l 313 468 l 313 0 l 590 0 l 590 508 l 832 972 l 715 972 l 539 629 l 339 972 z "},"Z":{"ha":979,"x_min":60,"x_max":901,"o":"m 901 972 l 101 972 l 101 868 l 528 868 l 60 0 l 901 0 l 901 104 l 431 104 l 901 972 z "},"[":{"ha":396,"x_min":83,"x_max":332,"o":"m 328 994 l 328 1042 l 83 1042 l 83 -104 l 332 -104 l 332 -58 l 236 -58 l 236 994 l 328 994 z "},"\\":{"ha":582,"x_min":19,"x_max":550,"o":"m 119 1021 l 19 1021 l 450 -69 l 550 -69 l 119 1021 z "},"]":{"ha":396,"x_min":81,"x_max":329,"o":"m 329 -104 l 329 1042 l 85 1042 l 85 994 l 176 994 l 176 -58 l 81 -58 l 81 -104 l 329 -104 z "},"^":{"ha":507,"x_min":75,"x_max":431,"o":"m 224 910 l 75 569 l 119 569 l 251 778 l 383 569 l 431 569 l 281 910 l 224 910 z "},"_":{"ha":636,"x_min":0,"x_max":651,"o":"m 651 -35 l 0 -35 l 0 -76 l 651 -76 l 651 -35 z "},"`":{"ha":326,"x_min":56,"x_max":278,"o":"m 69 957 q 94 940 75 951 q 142 913 114 929 q 205 878 169 897 q 278 839 240 860 q 232 905 254 872 q 191 963 210 938 q 158 1008 172 989 q 139 1033 144 1026 q 108 1046 128 1046 q 69 1031 83 1046 q 56 994 56 1015 q 69 957 56 971 z "},"a":{"ha":694,"x_min":28,"x_max":674,"o":"m 246 635 l 28 0 l 111 0 l 165 161 l 411 161 l 468 0 l 674 0 l 447 635 q 346 708 422 708 q 281 690 303 708 q 246 635 258 671 m 313 438 l 381 244 l 194 244 l 261 438 q 272 458 267 451 q 288 465 276 465 q 303 458 299 465 q 313 438 307 451 z "},"b":{"ha":819,"x_min":92,"x_max":779,"o":"m 300 681 l 300 1042 l 92 1042 l 92 0 l 394 0 q 555 27 483 0 q 676 101 626 54 q 753 209 726 147 q 779 340 779 271 q 753 472 779 410 q 676 580 726 533 q 555 653 626 626 q 394 681 483 681 l 300 681 m 553 340 q 540 246 553 292 q 503 164 528 200 q 443 106 479 128 q 360 83 407 83 l 300 83 l 300 597 l 360 597 q 443 575 407 597 q 503 517 479 553 q 540 435 528 481 q 553 340 553 389 z "},"c":{"ha":756,"x_min":31,"x_max":718,"o":"m 239 336 q 251 441 239 392 q 288 528 264 490 q 347 587 311 565 q 429 608 383 608 q 497 601 468 608 q 547 583 525 594 q 585 556 568 571 q 618 522 601 540 l 685 578 q 647 619 668 599 q 596 656 625 639 q 528 682 567 672 q 438 692 489 692 q 259 661 335 692 q 132 581 183 631 q 56 467 81 531 q 31 336 31 403 q 56 206 31 269 q 131 92 81 142 q 258 11 182 42 q 438 -19 335 -19 q 538 -8 494 -19 q 613 23 581 4 q 671 66 646 42 q 718 115 696 90 l 650 169 q 617 134 635 153 q 575 99 600 115 q 516 74 550 83 q 433 64 482 64 q 347 84 383 64 q 287 140 311 104 q 251 226 263 176 q 239 336 239 276 z "},"d":{"ha":819,"x_min":47,"x_max":736,"o":"m 736 0 l 736 1042 l 528 1042 l 528 681 l 433 681 q 265 651 338 681 q 144 574 192 622 q 72 465 96 526 q 47 340 47 404 q 72 215 47 276 q 144 106 96 154 q 264 29 192 58 q 433 0 336 0 l 736 0 m 528 597 l 528 83 l 468 83 q 383 103 419 83 q 324 159 347 124 q 288 241 300 194 q 275 340 275 288 q 287 437 275 390 q 323 519 299 483 q 383 576 347 554 q 468 597 419 597 l 528 597 z "},"e":{"ha":622,"x_min":61,"x_max":574,"o":"m 557 597 l 557 681 l 201 681 q 98 644 135 681 q 61 550 61 607 l 61 142 q 102 35 61 71 q 200 0 143 0 l 574 0 l 574 83 l 349 83 q 290 103 310 83 q 269 157 269 122 l 269 313 l 499 313 l 499 396 l 269 396 l 269 536 q 331 597 269 597 l 557 597 z "},"f":{"ha":483,"x_min":82,"x_max":440,"o":"m 429 958 l 429 1042 l 294 1042 q 140 988 199 1042 q 82 833 82 933 l 82 0 l 290 0 l 290 596 l 440 596 l 440 679 l 290 679 l 290 894 q 349 958 290 958 l 429 958 z "},"g":{"ha":840,"x_min":40,"x_max":797,"o":"m 421 -19 q 531 -6 493 -19 q 589 26 568 8 l 589 -261 l 797 -261 l 797 322 l 592 322 l 592 119 q 538 81 572 97 q 450 64 504 64 q 354 88 394 64 q 288 149 314 111 q 249 236 261 188 q 236 336 236 285 q 250 437 236 388 q 291 524 264 486 q 358 585 318 563 q 449 608 397 608 q 526 601 493 608 q 582 583 558 594 q 624 558 606 572 q 657 529 642 544 l 724 583 q 676 624 703 604 q 615 658 650 643 q 537 683 581 674 q 440 692 493 692 q 269 663 344 692 q 144 587 194 635 q 67 474 93 539 q 40 336 40 408 q 67 195 40 260 q 144 83 94 131 q 265 8 194 35 q 421 -19 335 -19 z "},"h":{"ha":764,"x_min":57,"x_max":708,"o":"m 265 461 l 265 1042 l 57 1042 l 57 0 l 265 0 l 265 378 l 500 378 l 500 0 l 708 0 l 708 681 l 500 681 l 500 461 l 265 461 z "},"i":{"ha":372,"x_min":83,"x_max":292,"o":"m 292 681 l 83 681 l 83 0 l 292 0 l 292 681 m 292 960 q 261 1033 292 1003 q 188 1064 231 1064 q 114 1033 144 1064 q 83 960 83 1003 q 114 886 83 917 q 188 856 144 856 q 261 886 231 856 q 292 960 292 917 z "},"j":{"ha":533,"x_min":17,"x_max":472,"o":"m 471 681 l 263 681 l 263 21 q 257 -49 263 -15 q 237 -109 251 -83 q 194 -151 222 -135 q 124 -167 167 -167 l 17 -167 l 17 -250 l 208 -250 q 407 -194 343 -250 q 471 -21 471 -137 l 471 681 m 472 960 q 442 1033 472 1003 q 368 1064 411 1064 q 294 1033 325 1064 q 264 960 264 1003 q 294 886 264 917 q 368 856 325 856 q 442 886 411 856 q 472 960 472 917 z "},"k":{"ha":839,"x_min":83,"x_max":790,"o":"m 292 442 l 292 1042 l 83 1042 l 83 0 l 292 0 l 292 314 l 331 353 l 554 0 l 790 0 l 472 494 l 658 681 l 531 681 l 292 442 z "},"l":{"ha":506,"x_min":83,"x_max":451,"o":"m 83 154 q 126 35 83 71 q 257 0 169 0 l 451 0 l 451 83 l 389 83 q 315 101 338 83 q 292 160 292 118 l 292 1042 l 83 1042 l 83 154 z "},"m":{"ha":1056,"x_min":71,"x_max":996,"o":"m 664 588 l 538 308 l 417 578 q 385 633 401 611 q 347 669 368 656 q 300 688 326 682 q 238 693 274 693 q 174 683 204 693 q 122 653 144 674 q 85 605 99 633 q 71 539 71 576 l 71 0 l 154 0 l 154 489 q 160 520 154 506 q 185 535 167 535 q 215 517 204 535 q 233 481 225 500 l 429 38 q 444 8 436 22 q 468 -7 451 -7 q 494 7 488 -7 q 508 36 501 21 l 714 501 q 731 531 721 518 q 760 543 740 543 q 784 522 781 543 q 788 481 788 500 l 788 0 l 996 0 l 996 553 q 951 660 996 626 q 843 694 906 694 q 737 671 782 694 q 664 588 692 647 z "},"n":{"ha":681,"x_min":71,"x_max":604,"o":"m 71 582 l 71 0 l 154 0 l 154 408 q 159 434 154 424 q 181 444 164 444 q 204 435 194 444 q 221 414 214 426 l 429 67 q 473 12 453 29 q 532 -6 493 -6 q 585 12 565 -6 q 604 76 604 29 l 604 681 l 521 681 l 521 350 q 518 332 521 339 q 503 325 515 325 q 476 347 489 325 l 306 624 q 182 692 264 692 q 105 665 139 692 q 71 582 71 639 z "},"o":{"ha":850,"x_min":40,"x_max":818,"o":"m 818 340 q 794 473 818 408 q 721 588 769 538 q 599 670 672 639 q 429 701 526 701 q 259 671 332 701 q 138 590 186 640 q 65 474 89 539 q 40 340 40 408 q 65 209 40 274 q 137 94 89 144 q 258 12 185 43 q 429 -19 331 -19 q 600 11 526 -19 q 722 92 674 42 q 794 208 769 143 q 818 340 818 272 m 263 340 q 273 442 263 392 q 304 531 283 492 q 356 594 325 571 q 429 618 388 618 q 502 594 471 618 q 554 532 533 571 q 585 443 575 493 q 596 340 596 393 q 585 239 596 289 q 554 150 575 189 q 502 88 533 111 q 429 64 471 64 q 356 88 388 64 q 304 150 325 111 q 273 238 283 189 q 263 340 263 288 z "},"p":{"ha":819,"x_min":85,"x_max":772,"o":"m 85 681 l 85 -257 l 293 -257 l 293 0 l 388 0 q 556 29 483 0 q 676 106 628 58 q 748 215 724 154 q 772 340 772 276 q 748 465 772 404 q 676 574 724 526 q 556 651 628 622 q 388 681 483 681 l 85 681 m 293 83 l 293 597 l 353 597 q 437 575 400 597 q 497 517 474 553 q 533 435 521 481 q 546 340 546 389 q 534 246 546 292 q 498 164 522 200 q 438 106 474 128 q 353 83 401 83 l 293 83 z "},"q":{"ha":844,"x_min":40,"x_max":818,"o":"m 332 175 l 411 65 q 346 96 374 71 q 299 159 318 121 q 272 244 281 197 q 263 340 263 292 q 273 442 263 392 q 304 531 283 492 q 356 594 325 571 q 429 618 388 618 q 502 594 471 618 q 554 532 533 571 q 585 443 575 493 q 596 340 596 393 q 578 210 596 272 q 525 108 561 149 l 476 175 l 332 175 m 721 -167 l 594 8 q 692 66 650 31 q 763 145 735 101 q 804 239 790 189 q 818 340 818 289 q 794 473 818 408 q 721 588 769 538 q 599 670 672 639 q 429 701 526 701 q 259 671 332 701 q 138 590 186 640 q 65 474 89 539 q 40 340 40 408 q 65 209 40 274 q 137 94 89 144 q 258 12 185 43 q 429 -19 331 -19 q 450 -19 440 -19 q 469 -18 460 -19 l 576 -167 l 721 -167 z "},"r":{"ha":767,"x_min":83,"x_max":728,"o":"m 292 0 l 292 597 l 360 597 q 406 586 386 597 q 438 557 425 575 q 458 516 451 539 q 464 469 464 493 q 458 424 464 446 q 441 383 453 401 q 411 355 429 365 q 369 344 393 344 l 329 344 l 515 0 l 728 0 l 549 314 q 638 366 613 321 q 664 469 664 411 q 651 544 664 507 q 608 613 638 582 q 533 662 579 643 q 424 681 488 681 l 83 681 l 83 0 l 292 0 z "},"s":{"ha":632,"x_min":36,"x_max":611,"o":"m 540 597 l 540 681 l 257 681 q 92 627 149 681 q 36 486 36 574 q 92 347 36 397 q 251 278 147 296 q 356 241 321 267 q 392 167 392 215 q 366 100 392 117 q 296 83 340 83 l 60 83 l 60 0 l 333 0 q 542 59 474 0 q 611 226 611 118 q 560 370 611 315 q 415 447 508 425 q 333 469 365 460 q 281 488 300 478 q 253 509 261 497 q 246 540 246 521 q 269 585 246 574 q 329 597 293 597 l 540 597 z "},"t":{"ha":715,"x_min":32,"x_max":685,"o":"m 685 681 l 32 681 l 32 597 l 254 597 l 254 0 l 463 0 l 463 597 l 685 597 l 685 681 z "},"u":{"ha":729,"x_min":63,"x_max":679,"o":"m 271 242 l 271 681 l 63 681 l 63 242 q 88 128 63 175 q 156 50 113 81 q 261 5 200 19 q 394 -10 322 -10 q 603 51 528 -10 q 679 247 679 111 l 679 681 l 596 681 l 596 240 q 552 112 596 150 q 438 74 508 74 q 316 112 361 74 q 271 242 271 150 z "},"v":{"ha":728,"x_min":33,"x_max":700,"o":"m 242 681 l 33 681 l 306 57 q 333 12 317 29 q 379 -6 349 -6 q 428 13 411 -6 q 457 61 446 32 l 700 681 l 617 681 l 476 326 q 432 297 464 297 q 388 328 400 297 l 242 681 z "},"w":{"ha":1144,"x_min":31,"x_max":1119,"o":"m 385 -7 q 435 6 414 -7 q 468 47 457 19 l 586 349 l 704 61 q 751 4 721 21 q 817 -12 781 -12 q 881 6 853 -12 q 922 63 910 24 l 1119 681 l 1036 681 l 893 257 q 881 235 888 243 q 858 228 874 228 q 835 236 843 228 q 822 257 826 244 l 664 681 l 456 681 l 543 467 l 463 269 q 451 247 456 256 q 438 239 447 239 q 422 247 426 239 q 411 269 418 256 l 239 681 l 31 681 l 300 47 q 385 -7 324 -7 z "},"x":{"ha":667,"x_min":28,"x_max":657,"o":"m 244 681 l 28 681 l 253 310 l 38 0 l 121 0 l 293 243 l 442 0 l 657 0 l 415 397 l 615 681 l 532 681 l 376 461 l 244 681 z "},"y":{"ha":761,"x_min":32,"x_max":739,"o":"m 240 681 l 32 681 l 350 88 l 171 -261 l 254 -261 l 739 681 l 656 681 l 453 288 l 240 681 z "},"z":{"ha":689,"x_min":29,"x_max":657,"o":"m 57 681 l 57 597 l 294 597 q 347 561 347 597 q 335 521 347 543 l 29 0 l 657 0 l 657 83 l 383 83 q 349 92 360 83 q 339 113 339 100 q 350 146 339 128 l 582 556 q 606 628 606 597 q 536 681 606 681 l 57 681 z "},"{":{"ha":417,"x_min":50,"x_max":363,"o":"m 363 -87 q 311 -81 331 -87 q 281 -61 292 -74 q 267 -30 271 -49 q 264 13 264 -11 l 264 333 q 228 408 264 378 q 126 469 192 438 q 187 499 161 485 q 230 528 213 513 q 256 565 247 544 q 264 614 264 586 l 264 914 q 267 956 264 938 q 281 988 271 975 q 311 1007 292 1000 q 363 1014 331 1014 l 363 1053 q 179 1003 247 1053 q 111 867 111 954 l 111 597 q 93 527 111 557 q 50 469 75 497 q 92 416 74 447 q 111 347 111 385 l 111 60 q 179 -77 111 -28 q 363 -126 247 -126 l 363 -87 z "},"|":{"ha":235,"x_min":92,"x_max":157,"o":"m 157 1042 l 92 1042 l 92 0 l 157 0 l 157 1042 z "},"}":{"ha":417,"x_min":57,"x_max":369,"o":"m 156 333 l 156 13 q 152 -30 156 -11 q 138 -61 149 -49 q 108 -81 128 -74 q 57 -87 89 -87 l 57 -126 q 240 -77 172 -126 q 308 60 308 -28 l 308 347 q 327 416 308 385 q 369 469 346 447 q 326 527 344 497 q 308 597 308 557 l 308 867 q 240 1003 308 954 q 57 1053 172 1053 l 57 1014 q 108 1007 89 1014 q 138 988 128 1000 q 152 956 149 975 q 156 914 156 938 l 156 614 q 164 565 156 586 q 190 528 172 544 q 233 499 207 513 q 293 469 258 485 q 192 408 228 438 q 156 333 156 378 z "},"~":{"ha":632,"x_min":40,"x_max":603,"o":"m 40 529 l 88 483 q 137 520 107 501 q 224 539 167 539 q 273 528 251 539 q 314 504 294 518 q 365 474 338 489 q 435 460 392 460 q 535 483 496 460 q 603 538 574 507 l 560 576 q 509 540 538 554 q 431 526 481 526 q 381 539 404 526 q 335 567 358 551 q 285 592 311 581 q 224 604 260 604 q 162 597 189 604 q 113 580 135 590 q 73 556 90 569 q 40 529 56 542 z "},"‚":{"ha":396,"x_min":67,"x_max":339,"o":"m 182 311 q 160 254 174 294 q 130 160 146 214 q 97 48 114 107 q 67 -62 81 -11 q 148 19 106 -24 q 228 103 190 63 q 293 176 265 143 q 331 226 321 208 q 339 263 339 243 q 316 324 339 300 q 253 349 293 349 q 213 340 233 349 q 182 311 193 331 z "},"ƒ":{"ha":1014,"x_min":83,"x_max":917,"o":"m 917 833 l 83 833 l 83 0 l 917 0 l 917 833 z "},"„":{"ha":701,"x_min":61,"x_max":617,"o":"m 460 311 q 438 254 451 294 q 408 160 424 214 q 375 48 392 107 q 344 -62 358 -11 q 426 19 383 -24 q 506 103 468 63 q 571 176 543 143 q 608 226 599 208 q 617 263 617 243 q 594 324 617 300 q 531 349 571 349 q 491 340 511 349 q 460 311 471 331 m 176 311 q 154 254 168 294 q 124 160 140 214 q 92 48 108 107 q 61 -62 75 -11 q 142 19 100 -24 q 222 103 185 63 q 288 176 260 143 q 325 226 315 208 q 333 263 333 243 q 310 324 333 300 q 247 349 288 349 q 208 340 228 349 q 176 311 188 331 z "},"…":{"ha":1431,"x_min":125,"x_max":1311,"o":"m 344 96 q 313 174 344 142 q 235 206 281 206 q 157 174 189 206 q 125 96 125 142 q 157 18 125 50 q 235 -14 189 -14 q 313 18 281 -14 q 344 96 344 50 m 828 96 q 796 174 828 142 q 718 206 764 206 q 640 174 672 206 q 608 96 608 142 q 640 18 608 50 q 718 -14 672 -14 q 796 18 764 -14 q 828 96 828 50 m 1311 96 q 1279 174 1311 142 q 1201 206 1247 206 q 1124 174 1156 206 q 1092 96 1092 142 q 1124 18 1092 50 q 1201 -14 1156 -14 q 1279 18 1247 -14 q 1311 96 1311 50 z "},"†":{"ha":361,"x_min":68,"x_max":310,"o":"m 161 199 l 217 199 l 217 751 l 310 751 l 310 807 l 217 807 l 217 1022 l 161 1022 l 161 807 l 68 807 l 68 751 l 161 751 l 161 199 z "},"‡":{"ha":361,"x_min":68,"x_max":310,"o":"m 68 494 l 161 494 l 161 67 l 217 67 l 217 494 l 310 494 l 310 550 l 217 550 l 217 751 l 310 751 l 310 807 l 217 807 l 217 1022 l 161 1022 l 161 807 l 68 807 l 68 751 l 161 751 l 161 550 l 68 550 l 68 494 z "},"ˆ":{"ha":465,"x_min":61,"x_max":417,"o":"m 210 993 l 61 833 l 106 833 l 238 931 l 369 833 l 417 833 l 267 993 l 210 993 z "},"‰":{"ha":1944,"x_min":64,"x_max":1907,"o":"m 657 724 q 639 822 657 774 q 584 908 621 871 q 491 969 547 946 q 360 993 435 993 q 231 970 286 993 q 138 909 175 947 q 83 822 101 871 q 64 724 64 774 q 82 625 64 674 q 137 538 100 576 q 229 476 174 500 q 360 453 285 453 q 489 476 433 453 q 582 537 544 499 q 638 624 619 575 q 657 724 657 672 m 236 724 q 244 814 236 769 q 269 893 253 858 q 308 949 285 928 q 360 971 331 971 q 413 950 389 971 q 455 894 438 929 q 481 815 472 860 q 490 724 490 771 q 483 635 490 679 q 461 557 476 592 q 421 501 446 522 q 360 481 396 481 q 303 501 326 481 q 265 557 279 522 q 243 635 250 592 q 236 724 236 678 m 197 0 l 263 0 l 1101 972 l 1036 972 l 197 0 m 1263 265 q 1244 364 1263 315 q 1189 450 1226 413 q 1095 511 1151 488 q 964 535 1039 535 q 835 512 890 535 q 742 451 779 489 q 685 364 704 413 q 667 265 667 315 q 685 167 667 215 q 741 80 704 118 q 833 18 778 42 q 964 -6 889 -6 q 1093 17 1038 -6 q 1186 78 1149 40 q 1243 165 1224 117 q 1263 265 1263 214 m 840 265 q 849 356 840 311 q 873 435 857 400 q 912 491 889 469 q 964 513 935 513 q 1017 492 993 513 q 1059 436 1042 471 q 1086 357 1076 401 q 1096 265 1096 313 q 1089 177 1096 221 q 1066 99 1082 133 q 1025 43 1050 64 q 964 22 1000 22 q 907 43 931 22 q 869 99 883 64 q 847 176 854 133 q 840 265 840 219 m 1907 265 q 1889 364 1907 315 q 1834 450 1871 413 q 1741 511 1797 488 q 1610 535 1685 535 q 1481 512 1536 535 q 1388 451 1425 489 q 1331 364 1350 413 q 1313 265 1313 315 q 1331 167 1313 215 q 1387 80 1350 118 q 1479 18 1424 42 q 1610 -6 1535 -6 q 1739 17 1683 -6 q 1832 78 1794 40 q 1888 165 1869 117 q 1907 265 1907 214 m 1486 265 q 1494 356 1486 311 q 1519 435 1503 400 q 1558 491 1535 469 q 1610 513 1581 513 q 1663 492 1639 513 q 1705 436 1688 471 q 1731 357 1722 401 q 1740 265 1740 313 q 1733 177 1740 221 q 1711 99 1726 133 q 1671 43 1696 64 q 1610 22 1646 22 q 1553 43 1576 22 q 1515 99 1529 64 q 1493 176 1500 133 q 1486 265 1486 219 z "},"Š":{"ha":863,"x_min":43,"x_max":815,"o":"m 675 786 l 763 844 q 713 894 742 869 q 645 940 683 919 q 558 973 607 960 q 449 986 510 986 q 283 966 356 986 q 161 908 211 946 q 85 819 111 871 q 58 706 58 768 q 84 594 58 639 q 153 518 110 550 q 255 463 197 486 q 378 418 313 440 q 498 344 458 392 q 538 242 538 297 q 530 190 538 217 q 504 142 522 164 q 454 106 486 119 q 375 92 422 92 q 301 103 338 92 q 232 135 264 115 q 175 181 200 154 q 136 239 150 208 l 43 192 q 94 119 61 156 q 176 53 128 82 q 287 5 224 24 q 428 -14 350 -14 q 582 6 511 -14 q 705 63 653 25 q 786 157 757 101 q 815 283 815 213 q 794 402 815 351 q 735 491 774 453 q 643 558 697 529 q 522 613 589 588 q 453 640 486 626 q 394 672 419 654 q 352 714 368 690 q 336 771 336 738 q 371 849 336 815 q 464 882 406 882 q 588 856 536 882 q 675 786 640 831 m 463 1021 l 611 1172 l 567 1172 l 435 1075 l 303 1172 l 256 1172 l 406 1021 l 463 1021 z "},"‹":{"ha":535,"x_min":65,"x_max":469,"o":"m 375 604 l 65 347 l 375 97 l 469 97 l 244 347 l 469 604 l 375 604 z "},"Œ":{"ha":1458,"x_min":46,"x_max":1408,"o":"m 46 483 q 89 270 46 364 q 204 111 132 176 q 372 12 276 46 q 572 -22 467 -22 q 686 -12 633 -22 q 782 14 739 -1 q 856 46 825 29 q 904 75 888 63 q 1015 0 924 0 l 1406 0 l 1406 103 l 1164 103 q 1101 124 1125 103 q 1076 181 1076 144 l 1076 449 l 1408 449 l 1408 551 l 1076 551 l 1076 808 q 1092 853 1076 838 q 1131 868 1107 868 l 1406 868 l 1406 972 l 1047 972 q 956 945 994 972 q 904 886 918 918 q 866 914 892 897 q 799 947 840 931 q 702 974 758 963 q 572 986 646 986 q 348 944 446 986 q 183 833 250 903 q 81 672 115 763 q 46 483 46 581 m 307 482 q 324 628 307 557 q 374 756 340 700 q 458 847 407 813 q 576 882 508 882 q 694 848 643 882 q 778 758 744 814 q 829 629 813 701 q 846 481 846 557 q 829 335 846 407 q 779 208 813 264 q 695 117 746 151 q 576 83 644 83 q 459 117 510 83 q 374 208 408 151 q 324 335 340 264 q 307 482 307 407 z "},"‘":{"ha":382,"x_min":60,"x_max":332,"o":"m 68 896 q 106 845 78 878 q 171 772 133 813 q 251 689 208 732 q 332 607 293 646 q 301 717 317 658 q 269 830 285 776 q 239 924 253 883 q 217 981 225 964 q 185 1009 206 1000 q 146 1018 165 1018 q 83 994 106 1018 q 60 932 60 969 q 68 896 60 913 z "},"’":{"ha":396,"x_min":72,"x_max":344,"o":"m 188 981 q 165 924 179 964 q 135 830 151 883 q 103 717 119 776 q 72 607 86 658 q 153 689 111 646 q 233 772 196 732 q 299 845 271 813 q 336 896 326 878 q 344 932 344 913 q 322 994 344 969 q 258 1018 299 1018 q 219 1009 239 1018 q 188 981 199 1000 z "},"“":{"ha":701,"x_min":61,"x_max":617,"o":"m 69 896 q 107 845 79 878 q 172 772 135 813 q 252 689 210 732 q 333 607 294 646 q 302 717 318 658 q 270 830 286 776 q 240 924 254 883 q 218 981 226 964 q 187 1009 207 1000 q 147 1018 167 1018 q 84 994 107 1018 q 61 932 61 969 q 69 896 61 913 m 353 896 q 390 845 363 878 q 456 772 418 813 q 535 689 493 732 q 617 607 578 646 q 585 717 601 658 q 553 830 569 776 q 524 924 538 883 q 501 981 510 964 q 470 1009 490 1000 q 431 1018 450 1018 q 367 994 390 1018 q 344 932 344 969 q 353 896 344 913 z "},"”":{"ha":701,"x_min":72,"x_max":628,"o":"m 471 981 q 449 924 463 964 q 419 830 435 883 q 386 717 403 776 q 356 607 369 658 q 437 689 394 646 q 517 772 479 732 q 582 845 554 813 q 619 896 610 878 q 628 932 628 913 q 605 994 628 969 q 542 1018 582 1018 q 502 1009 522 1018 q 471 981 482 1000 m 188 981 q 165 924 179 964 q 135 830 151 883 q 103 717 119 776 q 72 607 86 658 q 153 689 111 646 q 233 772 196 732 q 299 845 271 813 q 336 896 326 878 q 344 932 344 913 q 322 994 344 969 q 258 1018 299 1018 q 219 1009 239 1018 q 188 981 199 1000 z "},"•":{"ha":653,"x_min":69,"x_max":583,"o":"m 583 388 q 563 488 583 440 q 508 569 543 535 q 426 624 474 604 q 326 644 379 644 q 226 624 274 644 q 144 569 179 604 q 90 488 110 535 q 69 388 69 440 q 90 288 69 335 q 144 206 110 240 q 226 151 179 171 q 326 131 274 131 q 426 151 379 131 q 508 206 474 171 q 563 288 543 240 q 583 388 583 335 z "},"–":{"ha":582,"x_min":96,"x_max":493,"o":"m 493 394 l 96 394 l 96 325 l 493 325 l 493 394 z "},"—":{"ha":910,"x_min":96,"x_max":838,"o":"m 838 394 l 96 394 l 96 325 l 838 325 l 838 394 z "},"˜":{"ha":563,"x_min":46,"x_max":499,"o":"m 46 899 l 85 858 q 123 891 100 875 q 186 907 146 907 q 232 897 214 907 q 265 876 250 888 q 308 850 285 863 q 371 838 331 838 q 444 856 413 838 q 499 900 475 874 l 463 942 q 423 910 444 922 q 368 897 401 897 q 321 908 340 897 q 282 932 301 919 q 241 954 263 943 q 186 965 219 965 q 103 944 136 965 q 46 899 71 922 z "},"™":{"ha":572,"x_min":53,"x_max":497,"o":"m 240 1053 l 53 1053 l 53 1032 l 136 1032 l 136 835 l 157 835 l 157 1032 l 240 1032 l 240 1053 m 294 1056 l 226 836 l 247 836 l 296 997 l 363 825 l 429 997 l 476 836 l 497 836 l 432 1056 l 363 876 l 294 1056 z "},"š":{"ha":632,"x_min":36,"x_max":611,"o":"m 540 597 l 540 681 l 257 681 q 92 627 149 681 q 36 486 36 574 q 92 347 36 397 q 251 278 147 296 q 356 241 321 267 q 392 167 392 215 q 366 100 392 117 q 296 83 340 83 l 60 83 l 60 0 l 333 0 q 542 59 474 0 q 611 226 611 118 q 560 370 611 315 q 415 447 508 425 q 333 469 365 460 q 281 488 300 478 q 253 509 261 497 q 246 540 246 521 q 269 585 246 574 q 329 597 293 597 l 540 597 m 338 743 l 486 894 l 442 894 l 310 797 l 178 894 l 131 894 l 281 743 l 338 743 z "},"›":{"ha":549,"x_min":82,"x_max":486,"o":"m 82 97 l 176 97 l 486 347 l 176 604 l 82 604 l 307 347 l 82 97 z "},"œ":{"ha":1174,"x_min":44,"x_max":1122,"o":"m 429 -19 q 538 -7 485 -19 q 631 28 590 6 q 661 8 642 17 q 721 0 681 0 l 1122 0 l 1122 83 l 889 83 q 837 99 856 83 q 818 139 818 114 l 818 313 l 1047 313 l 1047 396 l 818 396 l 818 549 q 833 588 818 579 q 879 597 847 597 l 1106 597 l 1106 681 l 733 681 q 670 671 694 681 q 635 653 646 661 q 545 688 597 674 q 429 701 493 701 q 262 671 333 701 q 142 590 190 640 q 69 474 93 539 q 44 340 44 408 q 68 209 44 274 q 139 94 92 144 q 258 12 186 43 q 429 -19 331 -19 m 263 340 q 273 442 263 392 q 304 531 283 492 q 356 594 325 571 q 429 618 388 618 q 502 594 471 618 q 554 532 533 571 q 585 443 575 493 q 596 340 596 393 q 585 239 596 289 q 554 150 575 189 q 502 88 533 111 q 429 64 471 64 q 356 88 388 64 q 304 150 325 111 q 273 238 283 189 q 263 340 263 288 z "},"Ÿ":{"ha":889,"x_min":17,"x_max":832,"o":"m 435 1118 q 410 1178 435 1154 q 350 1203 386 1203 q 290 1178 314 1203 q 265 1118 265 1154 q 290 1058 265 1082 q 350 1033 314 1033 q 410 1058 386 1033 q 435 1118 435 1082 m 693 1118 q 669 1178 693 1154 q 608 1203 644 1203 q 548 1178 572 1203 q 524 1118 524 1154 q 548 1058 524 1082 q 608 1033 572 1033 q 669 1058 644 1033 q 693 1118 693 1082 m 339 972 l 17 972 l 313 468 l 313 0 l 590 0 l 590 508 l 832 972 l 715 972 l 539 629 l 339 972 z "},"¡":{"ha":403,"x_min":85,"x_max":318,"o":"m 85 0 q 118 -106 85 -69 q 203 -142 151 -142 q 286 -104 254 -142 q 318 0 318 -67 q 314 50 318 15 q 303 129 310 85 q 290 224 297 174 q 274 321 282 274 q 260 407 267 368 q 250 468 253 446 q 238 518 246 499 q 203 538 229 538 q 168 517 176 538 q 156 468 160 497 q 145 408 151 447 q 131 323 139 369 q 115 226 124 276 q 100 131 107 176 q 89 51 93 86 q 85 0 85 15 m 92 735 q 124 656 92 689 q 203 624 157 624 q 281 656 249 624 q 314 735 314 689 q 281 813 314 781 q 203 846 249 846 q 124 813 157 846 q 92 735 92 781 z "},"¢":{"ha":861,"x_min":78,"x_max":765,"o":"m 419 235 l 528 765 q 609 735 579 758 q 665 683 639 713 l 732 739 q 701 774 718 757 q 661 806 683 792 q 610 832 639 821 q 544 849 582 843 l 575 1000 l 517 1000 l 488 853 q 307 822 383 853 q 179 742 231 792 q 103 628 128 692 q 78 497 78 564 q 94 390 78 443 q 144 291 111 336 q 228 211 178 246 q 347 158 279 176 l 310 -28 l 367 -28 l 401 147 q 442 143 421 144 q 485 142 463 142 q 585 153 542 142 q 660 184 628 165 q 718 227 693 203 q 765 276 743 251 l 697 331 q 665 295 682 314 q 622 260 647 276 q 563 235 597 244 q 481 225 529 225 q 419 235 447 225 m 286 497 q 298 601 286 553 q 333 688 310 650 q 392 747 357 725 q 471 769 426 768 l 368 263 q 306 359 326 299 q 286 497 286 419 z "},"£":{"ha":854,"x_min":49,"x_max":810,"o":"m 515 979 q 222 908 325 979 q 118 671 118 836 l 118 514 l 49 514 l 49 444 l 118 444 l 118 0 l 739 0 l 739 104 l 396 104 l 396 444 l 599 444 l 599 514 l 396 514 l 396 725 q 401 790 396 758 q 423 844 407 821 q 466 882 439 868 q 536 896 493 896 q 609 884 579 896 q 658 851 639 872 q 690 803 678 831 q 708 743 701 775 l 810 743 q 788 837 806 793 q 734 912 769 881 q 645 961 699 943 q 515 979 592 979 z "},"¥":{"ha":917,"x_min":68,"x_max":874,"o":"m 335 971 l 68 971 l 351 493 l 157 493 l 157 451 l 351 451 l 351 389 l 157 389 l 157 347 l 351 347 l 351 0 l 629 0 l 629 347 l 810 347 l 810 389 l 629 389 l 629 451 l 810 451 l 810 493 l 629 493 l 874 972 l 765 972 l 560 594 l 335 971 z "},"¦":{"ha":185,"x_min":75,"x_max":124,"o":"m 124 454 l 75 454 l 75 0 l 124 0 l 124 454 m 75 606 l 124 606 l 124 1049 l 75 1049 l 75 606 z "},"§":{"ha":731,"x_min":36,"x_max":694,"o":"m 144 863 q 169 764 144 801 q 225 703 193 726 q 88 644 140 703 q 36 485 36 586 q 55 382 36 422 q 106 315 74 342 q 180 274 138 289 q 269 246 222 258 q 366 215 326 231 q 430 180 406 200 q 465 135 454 160 q 475 79 475 111 q 440 -23 475 8 q 340 -54 406 -54 l 140 -54 l 140 -114 l 385 -114 q 464 -103 424 -114 q 535 -69 504 -93 q 587 -6 567 -44 q 607 89 607 32 q 584 201 607 157 q 522 260 561 244 q 584 276 553 261 q 640 319 615 290 q 679 392 664 349 q 694 494 694 435 q 636 658 694 597 q 469 744 578 719 q 373 772 411 758 q 313 803 335 786 q 281 842 290 819 q 272 893 272 864 q 300 983 272 947 q 382 1018 328 1018 l 583 1018 l 583 1071 l 333 1071 q 197 1014 249 1071 q 144 863 144 957 m 260 632 l 328 632 q 428 604 383 617 q 505 574 474 592 q 553 529 536 556 q 569 461 569 503 q 538 360 569 389 q 447 331 506 331 q 351 358 401 347 q 259 386 301 369 q 189 431 217 403 q 161 511 161 460 q 188 600 161 568 q 260 632 214 632 z "},"¨":{"ha":486,"x_min":31,"x_max":458,"o":"m 200 960 q 176 1020 200 996 q 115 1044 151 1044 q 55 1020 79 1044 q 31 960 31 996 q 55 899 31 924 q 115 875 79 875 q 176 899 151 875 q 200 960 200 924 m 458 960 q 434 1020 458 996 q 374 1044 410 1044 q 313 1020 338 1044 q 289 960 289 996 q 313 899 289 924 q 374 875 338 875 q 434 899 410 875 q 458 960 458 924 z "},"©":{"ha":868,"x_min":67,"x_max":797,"o":"m 279 547 q 289 599 279 574 q 317 643 299 624 q 365 674 336 663 q 432 686 394 686 q 509 671 476 686 q 564 639 542 656 l 564 672 q 513 700 543 686 q 432 714 482 714 q 353 699 386 714 q 297 662 319 685 q 263 608 274 639 q 251 547 251 578 q 263 485 251 515 q 297 432 274 456 q 353 394 319 408 q 432 379 388 379 q 516 396 485 379 q 564 428 547 413 l 564 461 q 510 422 540 438 q 432 407 481 407 q 365 419 394 407 q 317 451 336 431 q 289 496 299 471 q 279 547 279 521 m 797 540 q 769 682 797 615 q 690 799 740 749 q 574 877 640 849 q 432 906 507 906 q 290 877 357 906 q 174 799 224 849 q 95 682 124 749 q 67 540 67 615 q 95 399 67 465 q 174 282 124 332 q 290 203 224 232 q 432 175 357 175 q 574 203 507 175 q 690 282 640 232 q 769 399 740 332 q 797 540 797 465 m 96 542 q 122 673 96 611 q 194 781 149 735 q 302 853 240 826 q 433 879 364 879 q 565 853 503 879 q 672 781 626 826 q 744 673 718 735 q 771 542 771 611 q 744 410 771 472 q 672 303 718 349 q 565 231 626 257 q 433 204 503 204 q 302 231 364 204 q 194 303 240 257 q 122 410 149 349 q 96 542 96 472 z "},"ª":{"ha":569,"x_min":31,"x_max":546,"o":"m 546 357 l 31 357 l 31 315 l 546 315 l 546 357 m 206 851 l 53 407 l 111 407 l 149 519 l 321 519 l 361 407 l 504 407 l 346 851 q 275 903 329 903 q 229 890 244 903 q 206 851 214 876 m 251 713 l 300 578 l 169 578 l 215 713 q 223 728 219 724 q 235 732 226 732 q 251 713 246 732 z "},"«":{"ha":872,"x_min":65,"x_max":824,"o":"m 375 604 l 65 347 l 375 97 l 469 97 l 244 347 l 469 604 l 375 604 m 729 604 l 419 347 l 729 97 l 824 97 l 599 347 l 824 604 l 729 604 z "},"¬":{"ha":475,"x_min":38,"x_max":453,"o":"m 453 508 l 38 508 l 38 467 l 453 467 l 453 508 m 307 1003 l 107 974 l 110 953 l 182 961 l 182 556 l 307 556 l 307 1003 m 365 333 q 330 410 365 381 q 232 439 294 439 q 134 407 169 439 q 99 331 99 375 q 106 298 99 313 q 126 273 114 283 q 151 256 138 263 q 176 249 164 250 q 146 239 164 247 q 111 215 128 231 q 83 176 94 199 q 71 121 71 153 q 82 70 71 94 q 114 28 93 46 q 165 -1 135 10 q 233 -12 196 -12 q 301 -1 271 -12 q 351 28 331 10 q 384 70 372 46 q 396 122 396 94 q 383 176 396 153 q 353 215 371 199 q 316 238 335 231 q 285 249 297 246 q 310 256 296 250 q 336 273 324 263 q 357 299 349 283 q 365 333 365 314 m 281 339 q 272 283 281 310 q 235 257 263 257 q 197 282 211 257 q 183 339 183 307 q 194 394 183 368 q 229 421 206 421 q 266 396 251 421 q 281 339 281 371 m 176 121 q 188 199 176 163 q 228 235 200 235 q 272 200 256 235 q 289 121 289 165 q 276 43 289 79 q 236 7 264 7 q 192 42 208 7 q 176 121 176 76 z "},"®":{"ha":556,"x_min":57,"x_max":496,"o":"m 368 929 q 349 978 368 958 q 297 997 329 997 l 200 997 l 200 744 l 219 744 l 219 861 l 263 861 l 343 744 l 368 744 l 286 861 l 297 861 q 349 878 329 861 q 368 929 368 894 m 349 929 q 299 881 349 881 l 219 881 l 219 978 l 299 978 q 336 963 324 978 q 349 929 349 949 m 496 865 q 478 951 496 911 q 431 1020 461 990 q 362 1067 401 1050 q 276 1085 322 1085 q 191 1067 231 1085 q 122 1020 151 1050 q 74 951 92 990 q 57 865 57 911 q 74 780 57 819 q 122 710 92 740 q 191 663 151 681 q 276 646 231 646 q 362 663 322 646 q 431 710 401 681 q 478 780 461 740 q 496 865 496 819 m 78 865 q 93 943 78 907 q 135 1006 108 979 q 199 1049 163 1033 q 276 1064 235 1064 q 354 1049 318 1064 q 417 1006 390 1033 q 460 943 444 979 q 475 865 475 907 q 460 788 475 824 q 417 724 444 751 q 354 682 390 697 q 276 667 318 667 q 199 682 235 667 q 135 724 163 697 q 93 788 108 751 q 78 865 78 824 z "},"¯":{"ha":479,"x_min":32,"x_max":449,"o":"m 449 940 l 32 940 l 32 885 l 449 885 l 449 940 z "},"°":{"ha":390,"x_min":78,"x_max":311,"o":"m 311 833 q 277 916 311 882 q 194 950 243 950 q 112 916 146 950 q 78 833 78 882 q 112 751 78 785 q 194 717 146 717 q 277 751 243 717 q 311 833 311 785 m 122 833 q 143 885 122 864 q 194 906 164 906 q 246 885 225 906 q 267 833 267 864 q 246 782 267 803 q 194 761 225 761 q 143 782 164 761 q 122 833 122 803 z "},"²":{"ha":475,"x_min":82,"x_max":407,"o":"m 92 892 l 139 892 q 161 928 144 910 q 211 947 178 947 q 265 930 247 947 q 282 885 282 913 q 273 835 282 854 q 246 793 264 815 l 82 589 l 82 554 l 407 554 l 407 600 l 232 600 l 363 767 q 393 815 382 792 q 404 878 404 839 q 358 964 404 935 q 243 993 311 993 q 179 983 206 993 q 135 959 153 974 q 106 926 117 944 q 92 892 96 908 z "},"³":{"ha":475,"x_min":94,"x_max":382,"o":"m 94 997 l 94 951 l 217 951 l 128 828 l 214 828 q 253 817 239 828 q 267 792 267 807 q 262 769 267 778 q 249 750 257 761 l 100 561 l 228 561 l 361 735 q 377 766 372 750 q 382 799 382 782 q 357 854 382 833 q 294 875 332 875 l 258 875 l 364 997 l 94 997 z "},"´":{"ha":326,"x_min":56,"x_max":278,"o":"m 194 1033 q 174 1008 188 1026 q 141 963 160 989 q 100 905 122 938 q 56 839 78 872 q 128 878 93 860 q 192 913 164 897 q 239 940 219 929 q 264 957 258 951 q 278 994 278 971 q 264 1031 278 1015 q 225 1046 250 1046 q 194 1033 206 1046 z "},"µ":{"ha":475,"x_min":38,"x_max":453,"o":"m 453 508 l 38 508 l 38 467 l 453 467 l 453 508 m 79 333 l 126 333 q 149 370 132 351 q 199 389 165 389 q 252 372 235 389 q 269 326 269 354 q 260 276 269 296 q 233 235 251 257 l 69 31 l 69 -4 l 394 -4 l 394 42 l 219 42 l 350 208 q 381 257 369 233 q 392 319 392 281 q 345 406 392 376 q 231 435 299 435 q 167 425 193 435 q 122 401 140 415 q 94 368 104 386 q 79 333 83 350 m 307 1003 l 107 974 l 110 953 l 182 961 l 182 556 l 307 556 l 307 1003 z "},"¶":{"ha":889,"x_min":56,"x_max":828,"o":"m 556 -104 l 556 972 l 321 972 q 205 956 254 972 q 122 913 156 940 q 72 848 89 885 q 56 771 56 811 q 72 692 56 729 q 122 628 89 656 q 204 585 154 601 q 321 569 254 569 l 368 569 l 368 -104 l 556 -104 m 640 -104 l 828 -104 l 828 972 l 640 972 l 640 -104 z "},"·":{"ha":403,"x_min":94,"x_max":314,"o":"m 314 506 q 282 583 314 551 q 204 615 250 615 q 126 583 158 615 q 94 506 94 551 q 126 428 94 460 q 204 396 158 396 q 282 428 250 396 q 314 506 314 460 z "},"¸":{"ha":257,"x_min":22,"x_max":222,"o":"m 135 0 l 79 0 l 79 -75 q 144 -133 144 -86 q 128 -171 144 -158 q 89 -183 113 -183 q 42 -172 67 -183 l 22 -203 q 69 -222 46 -217 q 115 -228 92 -228 q 191 -206 160 -228 q 222 -140 222 -183 q 214 -99 222 -115 q 192 -74 206 -83 q 164 -60 179 -64 q 135 -53 149 -56 l 135 0 z "},"¹":{"ha":475,"x_min":107,"x_max":307,"o":"m 307 1003 l 107 974 l 110 953 l 182 961 l 182 556 l 307 556 l 307 1003 z "},"º":{"ha":674,"x_min":67,"x_max":621,"o":"m 621 357 l 71 357 l 71 315 l 621 315 l 621 357 m 611 654 q 594 747 611 701 q 542 828 576 793 q 458 885 508 864 q 339 907 407 907 q 220 885 271 907 q 135 828 169 864 q 84 747 101 793 q 67 654 67 701 q 83 561 67 607 q 134 480 100 515 q 219 423 168 444 q 339 401 271 401 q 458 423 407 401 q 544 480 510 444 q 594 561 578 515 q 611 654 611 607 m 222 654 q 229 726 222 690 q 251 788 236 761 q 288 832 265 815 q 339 849 310 849 q 390 832 368 849 q 426 788 411 815 q 448 726 440 761 q 456 654 456 692 q 448 583 456 618 q 426 520 440 547 q 390 476 411 493 q 339 460 368 460 q 288 476 310 460 q 251 520 265 493 q 229 583 236 547 q 222 654 222 618 z "},"»":{"ha":872,"x_min":82,"x_max":844,"o":"m 82 97 l 176 97 l 486 347 l 176 604 l 82 604 l 307 347 l 82 97 m 440 97 l 535 97 l 844 347 l 535 604 l 440 604 l 665 347 l 440 97 z "},"¼":{"ha":475,"x_min":38,"x_max":453,"o":"m 453 513 l 38 513 l 38 471 l 453 471 l 453 513 m 365 433 l 263 433 l 40 160 l 40 121 l 240 121 l 240 -3 l 365 -3 l 365 121 l 418 121 l 418 167 l 365 167 l 365 433 m 307 1003 l 107 974 l 110 953 l 182 961 l 182 556 l 307 556 l 307 1003 m 240 167 l 106 167 l 240 333 l 240 167 z "},"½":{"ha":475,"x_min":38,"x_max":453,"o":"m 453 508 l 38 508 l 38 467 l 453 467 l 453 508 m 79 333 l 126 333 q 149 370 132 351 q 199 389 165 389 q 252 372 235 389 q 269 326 269 354 q 260 276 269 296 q 233 235 251 257 l 69 31 l 69 -4 l 394 -4 l 394 42 l 219 42 l 350 208 q 381 257 369 233 q 392 319 392 281 q 345 406 392 376 q 231 435 299 435 q 167 425 193 435 q 122 401 140 415 q 94 368 104 386 q 79 333 83 350 m 307 1003 l 107 974 l 110 953 l 182 961 l 182 556 l 307 556 l 307 1003 z "},"¾":{"ha":475,"x_min":38,"x_max":453,"o":"m 453 513 l 38 513 l 38 471 l 453 471 l 453 513 m 94 997 l 94 951 l 217 951 l 128 828 l 214 828 q 253 817 239 828 q 267 792 267 807 q 262 769 267 778 q 249 750 257 761 l 100 561 l 228 561 l 361 735 q 377 766 372 750 q 382 799 382 782 q 357 854 382 833 q 294 875 332 875 l 258 875 l 364 997 l 94 997 m 367 435 l 264 435 l 42 161 l 42 122 l 242 122 l 242 -1 l 367 -1 l 367 122 l 419 122 l 419 168 l 367 168 l 367 435 m 242 168 l 107 168 l 242 335 l 242 168 z "},"¿":{"ha":765,"x_min":82,"x_max":717,"o":"m 360 61 q 379 164 360 122 q 429 233 399 206 q 497 276 460 260 q 569 303 533 292 l 532 550 l 453 550 l 408 378 q 311 348 367 367 q 204 295 256 329 q 117 208 153 261 q 82 74 82 154 q 106 -30 82 15 q 174 -106 131 -75 q 278 -154 218 -137 q 413 -171 339 -171 q 549 -148 494 -171 q 640 -91 604 -125 q 692 -16 675 -57 q 717 63 710 25 l 613 63 q 598 16 607 39 q 573 -26 589 -7 q 534 -56 557 -44 q 479 -67 511 -67 q 388 -29 417 -67 q 360 61 360 8 m 386 717 q 418 639 386 671 q 496 607 450 607 q 574 639 542 607 q 606 717 606 671 q 574 794 606 763 q 496 826 542 826 q 418 794 450 826 q 386 717 386 763 z "},"À":{"ha":1111,"x_min":35,"x_max":1076,"o":"m 396 1150 q 419 1134 401 1144 q 461 1110 436 1124 q 518 1078 486 1096 q 583 1043 550 1061 q 542 1103 563 1074 q 506 1156 522 1132 q 476 1196 489 1179 q 458 1218 464 1213 q 445 1228 453 1225 q 431 1231 438 1231 q 396 1217 408 1231 q 383 1183 383 1203 q 396 1150 383 1163 m 451 972 l 35 0 l 143 0 l 267 289 l 663 289 l 788 0 l 1076 0 l 660 972 l 451 972 m 465 751 l 619 393 l 311 393 l 465 751 z "},"Á":{"ha":1111,"x_min":35,"x_max":1076,"o":"m 661 1218 q 643 1196 656 1213 q 614 1156 631 1179 q 577 1103 597 1132 q 536 1043 557 1074 q 601 1078 569 1061 q 658 1110 633 1096 q 701 1134 683 1124 q 724 1150 718 1144 q 736 1183 736 1163 q 724 1217 736 1203 q 689 1231 711 1231 q 674 1228 682 1231 q 661 1218 667 1225 m 451 972 l 35 0 l 143 0 l 267 289 l 663 289 l 788 0 l 1076 0 l 660 972 l 451 972 m 465 751 l 619 393 l 311 393 l 465 751 z "},"Â":{"ha":1111,"x_min":35,"x_max":1076,"o":"m 519 1185 l 371 1025 l 415 1025 l 547 1122 l 679 1025 l 726 1025 l 576 1185 l 519 1185 m 451 972 l 35 0 l 143 0 l 267 289 l 663 289 l 788 0 l 1076 0 l 660 972 l 451 972 m 465 751 l 619 393 l 311 393 l 465 751 z "},"Ã":{"ha":1111,"x_min":35,"x_max":1076,"o":"m 308 1076 l 347 1036 q 385 1069 363 1053 q 449 1085 408 1085 q 494 1075 476 1085 q 528 1054 513 1065 q 570 1028 547 1040 q 633 1015 593 1015 q 706 1033 675 1015 q 761 1078 738 1051 l 725 1119 q 685 1088 707 1100 q 631 1075 664 1075 q 583 1086 603 1075 q 544 1110 564 1097 q 503 1132 525 1121 q 449 1143 482 1143 q 366 1122 399 1143 q 308 1076 333 1100 m 451 972 l 35 0 l 143 0 l 267 289 l 663 289 l 788 0 l 1076 0 l 660 972 l 451 972 m 465 751 l 619 393 l 311 393 l 465 751 z "},"Ä":{"ha":1111,"x_min":35,"x_max":1076,"o":"m 499 1118 q 474 1178 499 1154 q 414 1203 450 1203 q 353 1178 378 1203 q 329 1118 329 1154 q 353 1058 329 1082 q 414 1033 378 1033 q 474 1058 450 1033 q 499 1118 499 1082 m 757 1118 q 733 1178 757 1154 q 672 1203 708 1203 q 612 1178 636 1203 q 588 1118 588 1154 q 612 1058 588 1082 q 672 1033 636 1033 q 733 1058 708 1033 q 757 1118 757 1082 m 451 972 l 35 0 l 143 0 l 267 289 l 663 289 l 788 0 l 1076 0 l 660 972 l 451 972 m 465 751 l 619 393 l 311 393 l 465 751 z "},"Å":{"ha":1111,"x_min":35,"x_max":1076,"o":"m 658 1110 q 627 1184 658 1153 q 553 1215 596 1215 q 478 1184 510 1215 q 447 1110 447 1153 q 478 1035 447 1067 q 553 1004 510 1004 q 627 1035 596 1004 q 658 1110 658 1067 m 488 1110 q 506 1156 488 1138 q 553 1175 525 1175 q 599 1156 581 1175 q 618 1110 618 1138 q 599 1063 618 1082 q 553 1044 581 1044 q 506 1063 525 1044 q 488 1110 488 1082 m 451 972 l 35 0 l 143 0 l 267 289 l 663 289 l 788 0 l 1076 0 l 660 972 l 451 972 m 465 751 l 619 393 l 311 393 l 465 751 z "},"Æ":{"ha":1194,"x_min":21,"x_max":1142,"o":"m 1142 972 l 507 972 l 21 0 l 132 0 l 346 421 l 549 421 l 549 0 l 1142 0 l 1142 104 l 814 104 l 814 449 l 1142 449 l 1142 553 l 814 553 l 814 868 l 1142 868 l 1142 972 m 394 525 l 549 840 l 549 525 l 394 525 z "},"Ç":{"ha":986,"x_min":56,"x_max":965,"o":"m 618 -62 l 618 -11 q 748 6 693 -8 q 842 40 803 19 q 911 87 882 61 q 965 138 940 113 l 886 206 q 840 162 865 182 q 782 126 815 142 q 703 102 749 111 q 594 93 657 93 q 474 124 526 93 q 387 207 422 154 q 333 332 351 260 q 314 486 314 404 q 333 642 314 569 q 387 767 351 714 q 474 849 422 819 q 594 879 526 879 q 699 870 657 879 q 773 847 742 861 q 826 813 804 832 q 868 774 847 793 l 949 840 q 894 889 924 864 q 824 935 865 914 q 727 969 783 956 q 592 983 671 983 q 363 943 463 983 q 195 834 264 903 q 91 676 126 765 q 56 486 56 586 q 88 303 56 390 q 183 147 119 215 q 340 38 246 79 q 557 -10 433 -4 l 557 -87 q 629 -151 629 -99 q 611 -193 629 -179 q 567 -207 593 -207 q 514 -194 540 -207 l 493 -229 q 544 -251 518 -244 q 596 -257 571 -257 q 680 -232 644 -257 q 715 -160 715 -207 q 706 -114 715 -132 q 681 -85 696 -96 q 650 -70 667 -75 q 618 -62 633 -65 z "},"È":{"ha":868,"x_min":83,"x_max":804,"o":"m 307 1150 q 330 1134 313 1144 q 372 1110 347 1124 q 429 1078 397 1096 q 494 1043 461 1061 q 453 1103 474 1074 q 417 1156 433 1132 q 388 1196 400 1179 q 369 1218 375 1213 q 356 1228 364 1225 q 342 1231 349 1231 q 307 1217 319 1231 q 294 1183 294 1203 q 307 1150 294 1163 m 790 868 l 790 972 l 83 972 l 83 0 l 804 0 l 804 104 l 361 104 l 361 449 l 776 449 l 776 553 l 361 553 l 361 868 l 790 868 z "},"É":{"ha":868,"x_min":83,"x_max":804,"o":"m 522 1218 q 504 1196 517 1213 q 475 1156 492 1179 q 438 1103 458 1132 q 397 1043 418 1074 q 463 1078 431 1061 q 519 1110 494 1096 q 562 1134 544 1124 q 585 1150 579 1144 q 597 1183 597 1163 q 585 1217 597 1203 q 550 1231 572 1231 q 535 1228 543 1231 q 522 1218 528 1225 m 790 868 l 790 972 l 83 972 l 83 0 l 804 0 l 804 104 l 361 104 l 361 449 l 776 449 l 776 553 l 361 553 l 361 868 l 790 868 z "},"Ê":{"ha":868,"x_min":83,"x_max":804,"o":"m 429 1185 l 281 1025 l 325 1025 l 457 1122 l 589 1025 l 636 1025 l 486 1185 l 429 1185 m 790 868 l 790 972 l 83 972 l 83 0 l 804 0 l 804 104 l 361 104 l 361 449 l 776 449 l 776 553 l 361 553 l 361 868 l 790 868 z "},"Ë":{"ha":868,"x_min":83,"x_max":804,"o":"m 393 1118 q 369 1178 393 1154 q 308 1203 344 1203 q 248 1178 272 1203 q 224 1118 224 1154 q 248 1058 224 1082 q 308 1033 272 1033 q 369 1058 344 1033 q 393 1118 393 1082 m 651 1118 q 627 1178 651 1154 q 567 1203 603 1203 q 506 1178 531 1203 q 482 1118 482 1154 q 506 1058 482 1082 q 567 1033 531 1033 q 627 1058 603 1033 q 651 1118 651 1082 m 790 868 l 790 972 l 83 972 l 83 0 l 804 0 l 804 104 l 361 104 l 361 449 l 776 449 l 776 553 l 361 553 l 361 868 l 790 868 z "},"Ì":{"ha":472,"x_min":69,"x_max":378,"o":"m 82 1150 q 105 1134 88 1144 q 147 1110 122 1124 q 204 1078 172 1096 q 269 1043 236 1061 q 228 1103 249 1074 q 192 1156 208 1132 q 163 1196 175 1179 q 144 1218 150 1213 q 131 1228 139 1225 q 117 1231 124 1231 q 82 1217 94 1231 q 69 1183 69 1203 q 82 1150 69 1163 m 100 0 l 378 0 l 378 972 l 100 972 l 100 0 z "},"Í":{"ha":472,"x_min":100,"x_max":422,"o":"m 347 1218 q 329 1196 342 1213 q 300 1156 317 1179 q 263 1103 283 1132 q 222 1043 243 1074 q 288 1078 256 1061 q 344 1110 319 1096 q 387 1134 369 1124 q 410 1150 404 1144 q 422 1183 422 1163 q 410 1217 422 1203 q 375 1231 397 1231 q 360 1228 368 1231 q 347 1218 353 1225 m 100 0 l 378 0 l 378 972 l 100 972 l 100 0 z "},"Î":{"ha":472,"x_min":57,"x_max":413,"o":"m 206 1185 l 57 1025 l 101 1025 l 233 1122 l 365 1025 l 413 1025 l 263 1185 l 206 1185 m 100 0 l 378 0 l 378 972 l 100 972 l 100 0 z "},"Ï":{"ha":472,"x_min":29,"x_max":457,"o":"m 199 1118 q 174 1178 199 1154 q 114 1203 150 1203 q 53 1178 78 1203 q 29 1118 29 1154 q 53 1058 29 1082 q 114 1033 78 1033 q 174 1058 150 1033 q 199 1118 199 1082 m 457 1118 q 433 1178 457 1154 q 372 1203 408 1203 q 312 1178 336 1203 q 288 1118 288 1154 q 312 1058 288 1082 q 372 1033 336 1033 q 433 1058 408 1033 q 457 1118 457 1082 m 100 0 l 378 0 l 378 972 l 100 972 l 100 0 z "},"Ð":{"ha":1125,"x_min":13,"x_max":1047,"o":"m 383 547 l 383 868 l 532 868 q 641 838 594 868 q 717 754 688 807 q 762 632 747 701 q 776 486 776 563 q 763 340 776 408 q 719 218 749 271 q 644 135 690 165 q 532 104 597 104 l 383 104 l 383 443 l 478 443 l 478 547 l 383 547 m 106 443 l 106 0 l 532 0 q 749 39 653 0 q 911 144 844 78 q 1013 299 978 211 q 1047 486 1047 388 q 1012 675 1047 586 q 910 830 976 764 q 748 934 843 896 q 532 972 653 972 l 106 972 l 106 547 l 13 547 l 13 443 l 106 443 z "},"Ñ":{"ha":944,"x_min":81,"x_max":856,"o":"m 261 1076 l 300 1036 q 338 1069 315 1053 q 401 1085 361 1085 q 447 1075 429 1085 q 481 1054 465 1065 q 523 1028 500 1040 q 586 1015 546 1015 q 659 1033 628 1015 q 714 1078 690 1051 l 678 1119 q 638 1088 660 1100 q 583 1075 617 1075 q 536 1086 556 1075 q 497 1110 517 1097 q 456 1132 478 1121 q 401 1143 435 1143 q 319 1122 351 1143 q 261 1076 286 1100 m 81 972 l 81 0 l 185 0 l 185 718 l 731 0 l 856 0 l 856 972 l 750 972 l 750 432 l 343 972 l 81 972 z "},"Ò":{"ha":1146,"x_min":46,"x_max":1107,"o":"m 460 1150 q 483 1134 465 1144 q 525 1110 500 1124 q 582 1078 550 1096 q 647 1043 614 1061 q 606 1103 626 1074 q 569 1156 586 1132 q 540 1196 553 1179 q 522 1218 528 1213 q 509 1228 517 1225 q 494 1231 501 1231 q 460 1217 472 1231 q 447 1183 447 1203 q 460 1150 447 1163 m 1107 482 q 1074 667 1107 576 q 974 828 1040 757 q 809 942 908 899 q 576 986 710 986 q 344 943 443 986 q 178 829 244 900 q 79 667 113 758 q 46 482 46 576 q 79 297 46 388 q 178 136 113 207 q 344 22 244 65 q 576 -21 443 -21 q 809 22 710 -21 q 974 136 908 65 q 1074 297 1040 207 q 1107 482 1107 388 m 307 482 q 324 628 307 557 q 374 756 340 700 q 458 847 407 813 q 576 882 508 882 q 694 848 643 882 q 778 758 744 814 q 829 629 813 701 q 846 482 846 557 q 829 335 846 407 q 779 208 813 264 q 695 117 746 151 q 576 83 644 83 q 459 117 510 83 q 374 208 408 151 q 324 335 340 264 q 307 482 307 407 z "},"Ó":{"ha":1146,"x_min":46,"x_max":1107,"o":"m 636 1218 q 618 1196 631 1213 q 589 1156 606 1179 q 552 1103 572 1132 q 511 1043 532 1074 q 576 1078 544 1061 q 633 1110 608 1096 q 676 1134 658 1124 q 699 1150 693 1144 q 711 1183 711 1163 q 699 1217 711 1203 q 664 1231 686 1231 q 649 1228 657 1231 q 636 1218 642 1225 m 1107 482 q 1074 667 1107 576 q 974 828 1040 757 q 809 942 908 899 q 576 986 710 986 q 344 943 443 986 q 178 829 244 900 q 79 667 113 758 q 46 482 46 576 q 79 297 46 388 q 178 136 113 207 q 344 22 244 65 q 576 -21 443 -21 q 809 22 710 -21 q 974 136 908 65 q 1074 297 1040 207 q 1107 482 1107 388 m 307 482 q 324 628 307 557 q 374 756 340 700 q 458 847 407 813 q 576 882 508 882 q 694 848 643 882 q 778 758 744 814 q 829 629 813 701 q 846 482 846 557 q 829 335 846 407 q 779 208 813 264 q 695 117 746 151 q 576 83 644 83 q 459 117 510 83 q 374 208 408 151 q 324 335 340 264 q 307 482 307 407 z "},"Ô":{"ha":1146,"x_min":46,"x_max":1107,"o":"m 536 1185 l 388 1025 l 432 1025 l 564 1122 l 696 1025 l 743 1025 l 593 1185 l 536 1185 m 1107 482 q 1074 667 1107 576 q 974 828 1040 757 q 809 942 908 899 q 576 986 710 986 q 344 943 443 986 q 178 829 244 900 q 79 667 113 758 q 46 482 46 576 q 79 297 46 388 q 178 136 113 207 q 344 22 244 65 q 576 -21 443 -21 q 809 22 710 -21 q 974 136 908 65 q 1074 297 1040 207 q 1107 482 1107 388 m 307 482 q 324 628 307 557 q 374 756 340 700 q 458 847 407 813 q 576 882 508 882 q 694 848 643 882 q 778 758 744 814 q 829 629 813 701 q 846 482 846 557 q 829 335 846 407 q 779 208 813 264 q 695 117 746 151 q 576 83 644 83 q 459 117 510 83 q 374 208 408 151 q 324 335 340 264 q 307 482 307 407 z "},"Õ":{"ha":1146,"x_min":46,"x_max":1107,"o":"m 344 1076 l 383 1036 q 422 1069 399 1053 q 485 1085 444 1085 q 531 1075 513 1085 q 564 1054 549 1065 q 606 1028 583 1040 q 669 1015 629 1015 q 742 1033 711 1015 q 797 1078 774 1051 l 761 1119 q 722 1088 743 1100 q 667 1075 700 1075 q 619 1086 639 1075 q 581 1110 600 1097 q 540 1132 561 1121 q 485 1143 518 1143 q 402 1122 435 1143 q 344 1076 369 1100 m 1107 482 q 1074 667 1107 576 q 974 828 1040 757 q 809 942 908 899 q 576 986 710 986 q 344 943 443 986 q 178 829 244 900 q 79 667 113 758 q 46 482 46 576 q 79 297 46 388 q 178 136 113 207 q 344 22 244 65 q 576 -21 443 -21 q 809 22 710 -21 q 974 136 908 65 q 1074 297 1040 207 q 1107 482 1107 388 m 307 482 q 324 628 307 557 q 374 756 340 700 q 458 847 407 813 q 576 882 508 882 q 694 848 643 882 q 778 758 744 814 q 829 629 813 701 q 846 482 846 557 q 829 335 846 407 q 779 208 813 264 q 695 117 746 151 q 576 83 644 83 q 459 117 510 83 q 374 208 408 151 q 324 335 340 264 q 307 482 307 407 z "},"Ö":{"ha":1146,"x_min":46,"x_max":1107,"o":"m 529 1118 q 505 1178 529 1154 q 444 1203 481 1203 q 384 1178 408 1203 q 360 1118 360 1154 q 384 1058 360 1082 q 444 1033 408 1033 q 505 1058 481 1033 q 529 1118 529 1082 m 788 1118 q 763 1178 788 1154 q 703 1203 739 1203 q 642 1178 667 1203 q 618 1118 618 1154 q 642 1058 618 1082 q 703 1033 667 1033 q 763 1058 739 1033 q 788 1118 788 1082 m 1107 482 q 1074 667 1107 576 q 974 828 1040 757 q 809 942 908 899 q 576 986 710 986 q 344 943 443 986 q 178 829 244 900 q 79 667 113 758 q 46 482 46 576 q 79 297 46 388 q 178 136 113 207 q 344 22 244 65 q 576 -21 443 -21 q 809 22 710 -21 q 974 136 908 65 q 1074 297 1040 207 q 1107 482 1107 388 m 307 482 q 324 628 307 557 q 374 756 340 700 q 458 847 407 813 q 576 882 508 882 q 694 848 643 882 q 778 758 744 814 q 829 629 813 701 q 846 482 846 557 q 829 335 846 407 q 779 208 813 264 q 695 117 746 151 q 576 83 644 83 q 459 117 510 83 q 374 208 408 151 q 324 335 340 264 q 307 482 307 407 z "},"×":{"ha":501,"x_min":39,"x_max":471,"o":"m 101 579 l 43 540 l 210 293 l 39 36 l 96 -4 l 254 228 l 410 -4 l 471 33 l 296 293 l 464 542 l 403 579 l 253 353 l 101 579 z "},"Ø":{"ha":1144,"x_min":46,"x_max":1107,"o":"m 383 194 l 819 664 q 840 575 833 621 q 846 482 846 529 q 829 335 846 407 q 779 208 813 264 q 695 117 746 151 q 576 83 644 83 q 465 114 513 83 q 383 194 417 144 m 1107 482 q 1074 668 1107 578 q 974 829 1040 758 l 1044 906 l 967 976 l 893 897 q 752 963 831 939 q 576 986 674 986 q 344 943 443 986 q 178 829 244 900 q 79 667 113 758 q 46 482 46 576 q 80 295 46 386 q 181 133 114 204 l 99 44 l 176 -26 l 263 67 q 403 2 325 25 q 576 -21 481 -21 q 809 22 710 -21 q 974 136 908 65 q 1074 297 1040 207 q 1107 482 1107 388 m 576 882 q 690 851 642 882 q 772 767 739 819 l 335 297 q 307 482 307 385 q 324 628 307 557 q 374 756 340 700 q 458 847 407 813 q 576 882 508 882 z "},"Ù":{"ha":944,"x_min":74,"x_max":875,"o":"m 376 1150 q 399 1134 382 1144 q 442 1110 417 1124 q 499 1078 467 1096 q 564 1043 531 1061 q 523 1103 543 1074 q 486 1156 503 1132 q 457 1196 469 1179 q 439 1218 444 1213 q 426 1228 433 1225 q 411 1231 418 1231 q 376 1217 389 1231 q 364 1183 364 1203 q 376 1150 364 1163 m 351 275 l 351 972 l 74 972 l 74 325 q 107 181 74 243 q 198 74 140 118 q 332 8 256 31 q 496 -14 408 -14 q 644 5 575 -14 q 765 63 714 24 q 846 165 817 103 q 875 315 875 228 l 875 972 l 771 972 l 771 278 q 754 207 771 239 q 710 152 738 175 q 643 117 682 129 q 561 104 604 104 q 478 116 517 104 q 413 149 440 128 q 368 203 385 171 q 351 275 351 235 z "},"Ú":{"ha":944,"x_min":74,"x_max":875,"o":"m 592 1218 q 574 1196 586 1213 q 544 1156 561 1179 q 508 1103 528 1132 q 467 1043 488 1074 q 532 1078 500 1061 q 589 1110 564 1096 q 631 1134 614 1124 q 654 1150 649 1144 q 667 1183 667 1163 q 654 1217 667 1203 q 619 1231 642 1231 q 605 1228 613 1231 q 592 1218 597 1225 m 351 275 l 351 972 l 74 972 l 74 325 q 107 181 74 243 q 198 74 140 118 q 332 8 256 31 q 496 -14 408 -14 q 644 5 575 -14 q 765 63 714 24 q 846 165 817 103 q 875 315 875 228 l 875 972 l 771 972 l 771 278 q 754 207 771 239 q 710 152 738 175 q 643 117 682 129 q 561 104 604 104 q 478 116 517 104 q 413 149 440 128 q 368 203 385 171 q 351 275 351 235 z "},"Û":{"ha":944,"x_min":74,"x_max":875,"o":"m 492 1185 l 343 1025 l 388 1025 l 519 1122 l 651 1025 l 699 1025 l 549 1185 l 492 1185 m 351 275 l 351 972 l 74 972 l 74 325 q 107 181 74 243 q 198 74 140 118 q 332 8 256 31 q 496 -14 408 -14 q 644 5 575 -14 q 765 63 714 24 q 846 165 817 103 q 875 315 875 228 l 875 972 l 771 972 l 771 278 q 754 207 771 239 q 710 152 738 175 q 643 117 682 129 q 561 104 604 104 q 478 116 517 104 q 413 149 440 128 q 368 203 385 171 q 351 275 351 235 z "},"Ü":{"ha":944,"x_min":74,"x_max":875,"o":"m 482 1118 q 458 1178 482 1154 q 397 1203 433 1203 q 337 1178 361 1203 q 313 1118 313 1154 q 337 1058 313 1082 q 397 1033 361 1033 q 458 1058 433 1033 q 482 1118 482 1082 m 740 1118 q 716 1178 740 1154 q 656 1203 692 1203 q 595 1178 619 1203 q 571 1118 571 1154 q 595 1058 571 1082 q 656 1033 619 1033 q 716 1058 692 1033 q 740 1118 740 1082 m 351 275 l 351 972 l 74 972 l 74 325 q 107 181 74 243 q 198 74 140 118 q 332 8 256 31 q 496 -14 408 -14 q 644 5 575 -14 q 765 63 714 24 q 846 165 817 103 q 875 315 875 228 l 875 972 l 771 972 l 771 278 q 754 207 771 239 q 710 152 738 175 q 643 117 682 129 q 561 104 604 104 q 478 116 517 104 q 413 149 440 128 q 368 203 385 171 q 351 275 351 235 z "},"Ý":{"ha":847,"x_min":17,"x_max":832,"o":"m 339 972 l 17 972 l 313 468 l 313 0 l 590 0 l 590 508 l 832 972 l 715 972 l 539 629 l 339 972 m 522 1218 q 504 1196 517 1213 q 475 1156 492 1179 q 438 1103 458 1132 q 397 1043 418 1074 q 463 1078 431 1061 q 519 1110 494 1096 q 562 1134 544 1124 q 585 1150 579 1144 q 597 1183 597 1163 q 585 1217 597 1203 q 550 1231 572 1231 q 535 1228 543 1231 q 522 1218 528 1225 z "},"Þ":{"ha":972,"x_min":83,"x_max":935,"o":"m 935 521 q 913 621 935 575 q 852 700 892 667 q 758 751 813 733 q 636 769 703 769 l 361 769 l 361 972 l 83 972 l 83 0 l 361 0 l 361 272 l 636 272 q 758 290 703 272 q 852 342 813 308 q 913 421 892 375 q 935 521 935 467 m 660 521 q 651 467 660 493 q 624 420 642 440 q 581 388 606 400 q 522 376 556 376 l 361 376 l 361 665 l 522 665 q 624 623 588 665 q 660 521 660 581 z "},"ß":{"ha":993,"x_min":31,"x_max":950,"o":"m 126 596 l 126 0 l 301 0 l 301 810 q 351 923 301 882 q 476 964 401 964 q 567 953 529 964 q 628 924 604 942 q 662 881 651 906 q 672 832 672 857 q 649 753 672 786 q 581 697 625 721 q 468 608 501 654 q 435 507 435 563 q 467 410 435 449 q 550 351 499 372 q 686 280 642 314 q 731 197 731 246 q 706 114 731 144 q 614 83 681 83 l 422 83 l 422 0 l 653 0 q 771 11 717 0 q 865 48 825 22 q 927 115 904 74 q 950 217 950 156 q 930 315 950 271 q 875 393 910 358 q 794 454 840 428 q 696 500 747 481 q 619 540 643 519 q 596 583 596 560 q 608 622 596 603 q 644 653 621 640 q 749 735 715 690 q 782 843 782 781 q 762 919 782 882 q 703 985 742 957 q 608 1030 665 1013 q 476 1047 551 1047 q 345 1033 408 1047 q 233 990 282 1018 q 156 919 185 963 q 126 821 126 876 l 126 681 l 31 681 l 31 596 l 126 596 z "},"à":{"ha":694,"x_min":28,"x_max":674,"o":"m 175 957 q 200 940 181 951 q 247 913 219 929 q 310 878 275 897 q 383 839 346 860 q 338 905 360 872 q 297 963 315 938 q 264 1008 278 989 q 244 1033 250 1026 q 214 1046 233 1046 q 175 1031 189 1046 q 161 994 161 1015 q 175 957 161 971 m 246 635 l 28 0 l 111 0 l 165 161 l 411 161 l 468 0 l 674 0 l 447 635 q 346 708 422 708 q 281 690 303 708 q 246 635 258 671 m 313 438 l 381 244 l 194 244 l 261 438 q 272 458 267 451 q 288 465 276 465 q 303 458 299 465 q 313 438 307 451 z "},"á":{"ha":694,"x_min":28,"x_max":674,"o":"m 428 1033 q 407 1008 421 1026 q 374 963 393 989 q 333 905 356 938 q 289 839 311 872 q 362 878 326 860 q 425 913 397 897 q 472 940 453 929 q 497 957 492 951 q 511 994 511 971 q 497 1031 511 1015 q 458 1046 483 1046 q 428 1033 439 1046 m 246 635 l 28 0 l 111 0 l 165 161 l 411 161 l 468 0 l 674 0 l 447 635 q 346 708 422 708 q 281 690 303 708 q 246 635 258 671 m 313 438 l 381 244 l 194 244 l 261 438 q 272 458 267 451 q 288 465 276 465 q 303 458 299 465 q 313 438 307 451 z "},"â":{"ha":694,"x_min":28,"x_max":674,"o":"m 315 993 l 167 833 l 211 833 l 343 931 l 475 833 l 522 833 l 372 993 l 315 993 m 246 635 l 28 0 l 111 0 l 165 161 l 411 161 l 468 0 l 674 0 l 447 635 q 346 708 422 708 q 281 690 303 708 q 246 635 258 671 m 313 438 l 381 244 l 194 244 l 261 438 q 272 458 267 451 q 288 465 276 465 q 303 458 299 465 q 313 438 307 451 z "},"ã":{"ha":694,"x_min":28,"x_max":674,"o":"m 119 899 l 158 858 q 197 891 174 875 q 260 907 219 907 q 306 897 288 907 q 339 876 324 888 q 381 850 358 863 q 444 838 404 838 q 517 856 486 838 q 572 900 549 874 l 536 942 q 497 910 518 922 q 442 897 475 897 q 394 908 414 897 q 356 932 375 919 q 315 954 336 943 q 260 965 293 965 q 177 944 210 965 q 119 899 144 922 m 246 635 l 28 0 l 111 0 l 165 161 l 411 161 l 468 0 l 674 0 l 447 635 q 346 708 422 708 q 281 690 303 708 q 246 635 258 671 m 313 438 l 381 244 l 194 244 l 261 438 q 272 458 267 451 q 288 465 276 465 q 303 458 299 465 q 313 438 307 451 z "},"ä":{"ha":694,"x_min":28,"x_max":674,"o":"m 293 960 q 269 1020 293 996 q 208 1044 244 1044 q 148 1020 172 1044 q 124 960 124 996 q 148 899 124 924 q 208 875 172 875 q 269 899 244 875 q 293 960 293 924 m 551 960 q 527 1020 551 996 q 467 1044 503 1044 q 406 1020 431 1044 q 382 960 382 996 q 406 899 382 924 q 467 875 431 875 q 527 899 503 875 q 551 960 551 924 m 246 635 l 28 0 l 111 0 l 165 161 l 411 161 l 468 0 l 674 0 l 447 635 q 346 708 422 708 q 281 690 303 708 q 246 635 258 671 m 313 438 l 381 244 l 194 244 l 261 438 q 272 458 267 451 q 288 465 276 465 q 303 458 299 465 q 313 438 307 451 z "},"å":{"ha":694,"x_min":28,"x_max":674,"o":"m 457 922 q 423 1005 457 971 q 340 1039 389 1039 q 258 1005 292 1039 q 224 922 224 971 q 258 840 224 874 q 340 806 292 806 q 423 840 389 806 q 457 922 457 874 m 268 922 q 289 974 268 953 q 340 994 310 994 q 392 974 371 994 q 413 922 413 953 q 392 871 413 892 q 340 850 371 850 q 289 871 310 850 q 268 922 268 892 m 246 635 l 28 0 l 111 0 l 165 161 l 411 161 l 468 0 l 674 0 l 447 635 q 346 708 422 708 q 281 690 303 708 q 246 635 258 671 m 313 438 l 381 244 l 194 244 l 261 438 q 272 458 267 451 q 288 465 276 465 q 303 458 299 465 q 313 438 307 451 z "},"æ":{"ha":1028,"x_min":28,"x_max":976,"o":"m 381 478 q 401 508 392 496 q 429 521 411 521 q 454 510 447 521 q 461 479 461 499 l 461 244 l 250 244 l 381 478 m 960 681 l 490 681 q 418 665 450 681 q 369 618 386 649 l 28 0 l 117 0 l 207 161 l 461 161 l 461 104 q 486 26 461 53 q 557 0 511 0 l 976 0 l 976 82 l 747 82 q 690 99 708 82 q 672 147 672 117 l 672 313 l 901 313 l 901 397 l 672 397 l 672 549 q 684 587 672 576 q 715 597 696 597 l 960 597 l 960 681 z "},"ç":{"ha":750,"x_min":31,"x_max":718,"o":"m 469 -61 l 469 -18 q 556 -3 518 -15 q 622 28 593 10 q 674 69 651 47 q 718 115 697 92 l 650 169 q 617 134 635 153 q 575 99 600 115 q 516 74 550 83 q 433 64 482 64 q 347 84 383 64 q 287 140 311 104 q 251 226 263 176 q 239 336 239 276 q 251 441 239 392 q 288 528 264 490 q 347 587 311 565 q 429 608 383 608 q 497 601 468 608 q 547 583 525 594 q 585 556 568 571 q 618 522 601 540 l 685 578 q 647 619 668 599 q 596 656 625 639 q 528 682 567 672 q 438 692 489 692 q 259 661 335 692 q 132 581 183 631 q 56 467 81 531 q 31 336 31 403 q 54 209 31 271 q 126 98 78 147 q 245 17 174 49 q 414 -19 317 -15 l 414 -83 q 479 -142 479 -94 q 463 -179 479 -167 q 424 -192 447 -192 q 376 -181 401 -192 l 357 -211 q 403 -231 381 -225 q 450 -236 426 -236 q 526 -214 494 -236 q 557 -149 557 -192 q 549 -108 557 -124 q 527 -82 540 -92 q 499 -68 514 -72 q 469 -61 483 -64 z "},"è":{"ha":622,"x_min":61,"x_max":574,"o":"m 192 957 q 217 940 197 951 q 264 913 236 929 q 327 878 292 897 q 400 839 363 860 q 354 905 376 872 q 313 963 332 938 q 281 1008 294 989 q 261 1033 267 1026 q 231 1046 250 1046 q 192 1031 206 1046 q 178 994 178 1015 q 192 957 178 971 m 557 597 l 557 681 l 201 681 q 98 644 135 681 q 61 550 61 607 l 61 142 q 102 35 61 71 q 200 0 143 0 l 574 0 l 574 83 l 349 83 q 290 103 310 83 q 269 157 269 122 l 269 313 l 499 313 l 499 396 l 269 396 l 269 536 q 331 597 269 597 l 557 597 z "},"é":{"ha":622,"x_min":61,"x_max":574,"o":"m 419 1033 q 399 1008 413 1026 q 366 963 385 989 q 325 905 347 938 q 281 839 303 872 q 353 878 318 860 q 417 913 389 897 q 464 940 444 929 q 489 957 483 951 q 503 994 503 971 q 489 1031 503 1015 q 450 1046 475 1046 q 419 1033 431 1046 m 557 597 l 557 681 l 201 681 q 98 644 135 681 q 61 550 61 607 l 61 142 q 102 35 61 71 q 200 0 143 0 l 574 0 l 574 83 l 349 83 q 290 103 310 83 q 269 157 269 122 l 269 313 l 499 313 l 499 396 l 269 396 l 269 536 q 331 597 269 597 l 557 597 z "},"ê":{"ha":622,"x_min":61,"x_max":574,"o":"m 285 993 l 136 833 l 181 833 l 313 931 l 444 833 l 492 833 l 342 993 l 285 993 m 557 597 l 557 681 l 201 681 q 98 644 135 681 q 61 550 61 607 l 61 142 q 102 35 61 71 q 200 0 143 0 l 574 0 l 574 83 l 349 83 q 290 103 310 83 q 269 157 269 122 l 269 313 l 499 313 l 499 396 l 269 396 l 269 536 q 331 597 269 597 l 557 597 z "},"ë":{"ha":622,"x_min":61,"x_max":574,"o":"m 271 960 q 247 1020 271 996 q 186 1044 222 1044 q 126 1020 150 1044 q 101 960 101 996 q 126 899 101 924 q 186 875 150 875 q 247 899 222 875 q 271 960 271 924 m 529 960 q 505 1020 529 996 q 444 1044 481 1044 q 384 1020 408 1044 q 360 960 360 996 q 384 899 360 924 q 444 875 408 875 q 505 899 481 875 q 529 960 529 924 m 557 597 l 557 681 l 201 681 q 98 644 135 681 q 61 550 61 607 l 61 142 q 102 35 61 71 q 200 0 143 0 l 574 0 l 574 83 l 349 83 q 290 103 310 83 q 269 157 269 122 l 269 313 l 499 313 l 499 396 l 269 396 l 269 536 q 331 597 269 597 l 557 597 z "},"ì":{"ha":372,"x_min":3,"x_max":292,"o":"m 292 681 l 83 681 l 83 0 l 292 0 l 292 681 m 17 957 q 42 940 22 951 q 89 913 61 929 q 152 878 117 897 q 225 839 188 860 q 179 905 201 872 q 138 963 157 938 q 106 1008 119 989 q 86 1033 92 1026 q 56 1046 75 1046 q 17 1031 31 1046 q 3 994 3 1015 q 17 957 3 971 z "},"í":{"ha":372,"x_min":83,"x_max":386,"o":"m 292 681 l 83 681 l 83 0 l 292 0 l 292 681 m 303 1033 q 282 1008 296 1026 q 249 963 268 989 q 208 905 231 938 q 164 839 186 872 q 237 878 201 860 q 300 913 272 897 q 347 940 328 929 q 372 957 367 951 q 386 994 386 971 q 372 1031 386 1015 q 333 1046 358 1046 q 303 1033 314 1046 z "},"î":{"ha":372,"x_min":11,"x_max":367,"o":"m 292 681 l 83 681 l 83 0 l 292 0 l 292 681 m 160 993 l 11 833 l 56 833 l 188 931 l 319 833 l 367 833 l 217 993 l 160 993 z "},"ï":{"ha":372,"x_min":-26,"x_max":401,"o":"m 292 681 l 83 681 l 83 0 l 292 0 l 292 681 m 143 960 q 119 1020 143 996 q 58 1044 94 1044 q -2 1020 22 1044 q -26 960 -26 996 q -2 899 -26 924 q 58 875 22 875 q 119 899 94 875 q 143 960 143 924 m 401 960 q 377 1020 401 996 q 317 1044 353 1044 q 256 1020 281 1044 q 232 960 232 996 q 256 899 232 924 q 317 875 281 875 q 377 899 353 875 q 401 960 401 924 z "},"ð":{"ha":850,"x_min":40,"x_max":818,"o":"m 263 340 q 273 442 263 392 q 304 531 283 492 q 356 594 325 571 q 429 618 388 618 q 502 594 471 618 q 554 532 533 571 q 585 443 575 493 q 596 340 596 393 q 585 239 596 289 q 554 150 575 189 q 502 88 533 111 q 429 64 471 64 q 356 88 388 64 q 304 150 325 111 q 273 238 283 189 q 263 340 263 288 m 563 683 q 499 697 532 692 q 429 701 465 701 q 259 671 332 701 q 138 590 186 640 q 65 474 89 539 q 40 340 40 408 q 65 209 40 274 q 137 94 89 144 q 258 12 185 43 q 429 -19 331 -19 q 599 11 526 -19 q 721 92 672 42 q 794 208 769 143 q 818 340 818 272 q 789 533 818 443 q 715 699 760 624 q 619 834 671 775 q 519 933 567 893 l 646 1013 l 590 1049 l 468 972 q 322 1043 399 1019 l 272 994 q 335 966 306 983 q 397 928 365 949 l 285 857 l 340 821 l 451 890 q 483 851 465 874 q 517 801 500 828 q 546 744 533 774 q 563 683 558 714 z "},"ñ":{"ha":681,"x_min":71,"x_max":604,"o":"m 108 899 l 147 858 q 185 891 163 875 q 249 907 208 907 q 294 897 276 907 q 328 876 313 888 q 370 850 347 863 q 433 838 393 838 q 506 856 475 838 q 561 900 538 874 l 525 942 q 485 910 507 922 q 431 897 464 897 q 383 908 403 897 q 344 932 364 919 q 303 954 325 943 q 249 965 282 965 q 166 944 199 965 q 108 899 133 922 m 71 582 l 71 0 l 154 0 l 154 408 q 159 434 154 424 q 181 444 164 444 q 204 435 194 444 q 221 414 214 426 l 429 67 q 473 12 453 29 q 532 -6 493 -6 q 585 12 565 -6 q 604 76 604 29 l 604 681 l 521 681 l 521 350 q 518 332 521 339 q 503 325 515 325 q 476 347 489 325 l 306 624 q 182 692 264 692 q 105 665 139 692 q 71 582 71 639 z "},"ò":{"ha":850,"x_min":40,"x_max":818,"o":"m 269 957 q 294 940 275 951 q 342 913 314 929 q 405 878 369 897 q 478 839 440 860 q 432 905 454 872 q 391 963 410 938 q 358 1008 372 989 q 339 1033 344 1026 q 308 1046 328 1046 q 269 1031 283 1046 q 256 994 256 1015 q 269 957 256 971 m 818 340 q 794 473 818 408 q 721 588 769 538 q 599 670 672 639 q 429 701 526 701 q 259 671 332 701 q 138 590 186 640 q 65 474 89 539 q 40 340 40 408 q 65 209 40 274 q 137 94 89 144 q 258 12 185 43 q 429 -19 331 -19 q 600 11 526 -19 q 722 92 674 42 q 794 208 769 143 q 818 340 818 272 m 263 340 q 273 442 263 392 q 304 531 283 492 q 356 594 325 571 q 429 618 388 618 q 502 594 471 618 q 554 532 533 571 q 585 443 575 493 q 596 340 596 393 q 585 239 596 289 q 554 150 575 189 q 502 88 533 111 q 429 64 471 64 q 356 88 388 64 q 304 150 325 111 q 273 238 283 189 q 263 340 263 288 z "},"ó":{"ha":850,"x_min":40,"x_max":818,"o":"m 511 1033 q 490 1008 504 1026 q 458 963 476 989 q 417 905 439 938 q 372 839 394 872 q 445 878 410 860 q 508 913 481 897 q 556 940 536 929 q 581 957 575 951 q 594 994 594 971 q 581 1031 594 1015 q 542 1046 567 1046 q 511 1033 522 1046 m 818 340 q 794 473 818 408 q 721 588 769 538 q 599 670 672 639 q 429 701 526 701 q 259 671 332 701 q 138 590 186 640 q 65 474 89 539 q 40 340 40 408 q 65 209 40 274 q 137 94 89 144 q 258 12 185 43 q 429 -19 331 -19 q 600 11 526 -19 q 722 92 674 42 q 794 208 769 143 q 818 340 818 272 m 263 340 q 273 442 263 392 q 304 531 283 492 q 356 594 325 571 q 429 618 388 618 q 502 594 471 618 q 554 532 533 571 q 585 443 575 493 q 596 340 596 393 q 585 239 596 289 q 554 150 575 189 q 502 88 533 111 q 429 64 471 64 q 356 88 388 64 q 304 150 325 111 q 273 238 283 189 q 263 340 263 288 z "},"ô":{"ha":850,"x_min":40,"x_max":818,"o":"m 390 993 l 242 833 l 286 833 l 418 931 l 550 833 l 597 833 l 447 993 l 390 993 m 818 340 q 794 473 818 408 q 721 588 769 538 q 599 670 672 639 q 429 701 526 701 q 259 671 332 701 q 138 590 186 640 q 65 474 89 539 q 40 340 40 408 q 65 209 40 274 q 137 94 89 144 q 258 12 185 43 q 429 -19 331 -19 q 600 11 526 -19 q 722 92 674 42 q 794 208 769 143 q 818 340 818 272 m 263 340 q 273 442 263 392 q 304 531 283 492 q 356 594 325 571 q 429 618 388 618 q 502 594 471 618 q 554 532 533 571 q 585 443 575 493 q 596 340 596 393 q 585 239 596 289 q 554 150 575 189 q 502 88 533 111 q 429 64 471 64 q 356 88 388 64 q 304 150 325 111 q 273 238 283 189 q 263 340 263 288 z "},"õ":{"ha":850,"x_min":40,"x_max":818,"o":"m 190 899 l 229 858 q 267 891 244 875 q 331 907 290 907 q 376 897 358 907 q 410 876 394 888 q 452 850 429 863 q 515 838 475 838 q 588 856 557 838 q 643 900 619 874 l 607 942 q 567 910 589 922 q 513 897 546 897 q 465 908 485 897 q 426 932 446 919 q 385 954 407 943 q 331 965 364 965 q 248 944 281 965 q 190 899 215 922 m 818 340 q 794 473 818 408 q 721 588 769 538 q 599 670 672 639 q 429 701 526 701 q 259 671 332 701 q 138 590 186 640 q 65 474 89 539 q 40 340 40 408 q 65 209 40 274 q 137 94 89 144 q 258 12 185 43 q 429 -19 331 -19 q 600 11 526 -19 q 722 92 674 42 q 794 208 769 143 q 818 340 818 272 m 263 340 q 273 442 263 392 q 304 531 283 492 q 356 594 325 571 q 429 618 388 618 q 502 594 471 618 q 554 532 533 571 q 585 443 575 493 q 596 340 596 393 q 585 239 596 289 q 554 150 575 189 q 502 88 533 111 q 429 64 471 64 q 356 88 388 64 q 304 150 325 111 q 273 238 283 189 q 263 340 263 288 z "},"ö":{"ha":850,"x_min":40,"x_max":818,"o":"m 374 960 q 349 1020 374 996 q 289 1044 325 1044 q 228 1020 253 1044 q 204 960 204 996 q 228 899 204 924 q 289 875 253 875 q 349 899 325 875 q 374 960 374 924 m 632 960 q 608 1020 632 996 q 547 1044 583 1044 q 487 1020 511 1044 q 463 960 463 996 q 487 899 463 924 q 547 875 511 875 q 608 899 583 875 q 632 960 632 924 m 818 340 q 794 473 818 408 q 721 588 769 538 q 599 670 672 639 q 429 701 526 701 q 259 671 332 701 q 138 590 186 640 q 65 474 89 539 q 40 340 40 408 q 65 209 40 274 q 137 94 89 144 q 258 12 185 43 q 429 -19 331 -19 q 600 11 526 -19 q 722 92 674 42 q 794 208 769 143 q 818 340 818 272 m 263 340 q 273 442 263 392 q 304 531 283 492 q 356 594 325 571 q 429 618 388 618 q 502 594 471 618 q 554 532 533 571 q 585 443 575 493 q 596 340 596 393 q 585 239 596 289 q 554 150 575 189 q 502 88 533 111 q 429 64 471 64 q 356 88 388 64 q 304 150 325 111 q 273 238 283 189 q 263 340 263 288 z "},"÷":{"ha":597,"x_min":96,"x_max":493,"o":"m 493 394 l 96 394 l 96 325 l 493 325 l 493 394 m 404 172 q 372 250 404 218 q 294 282 340 282 q 217 250 249 282 q 185 172 185 218 q 217 94 185 126 q 294 63 249 63 q 372 94 340 63 q 404 172 404 126 m 404 575 q 372 653 404 621 q 294 685 340 685 q 217 653 249 685 q 185 575 185 621 q 217 497 185 529 q 294 465 249 465 q 372 497 340 465 q 404 575 404 529 z "},"ø":{"ha":850,"x_min":40,"x_max":818,"o":"m 818 340 q 790 484 818 415 q 703 606 761 553 l 756 663 l 708 708 l 650 644 q 551 687 606 672 q 429 701 496 701 q 259 671 332 701 q 138 590 186 640 q 65 474 89 539 q 40 340 40 408 q 65 206 40 271 q 140 89 90 140 l 90 35 l 143 -10 l 194 46 q 299 -2 240 15 q 429 -19 357 -19 q 600 11 526 -19 q 722 92 674 42 q 794 208 769 143 q 818 340 818 272 m 299 161 l 579 469 q 596 340 596 408 q 585 239 596 289 q 554 150 575 189 q 502 88 533 111 q 429 64 471 64 q 352 90 385 64 q 299 161 319 117 m 429 618 q 500 596 469 618 q 551 538 531 574 l 274 233 q 263 340 263 286 q 273 442 263 392 q 304 531 283 492 q 356 594 325 571 q 429 618 388 618 z "},"ù":{"ha":729,"x_min":63,"x_max":679,"o":"m 239 957 q 264 940 244 951 q 311 913 283 929 q 374 878 339 897 q 447 839 410 860 q 401 905 424 872 q 360 963 379 938 q 328 1008 342 989 q 308 1033 314 1026 q 278 1046 297 1046 q 239 1031 253 1046 q 225 994 225 1015 q 239 957 225 971 m 271 242 l 271 681 l 63 681 l 63 242 q 88 128 63 175 q 156 50 113 81 q 261 5 200 19 q 394 -10 322 -10 q 603 51 528 -10 q 679 247 679 111 l 679 681 l 596 681 l 596 240 q 552 112 596 150 q 438 74 508 74 q 316 112 361 74 q 271 242 271 150 z "},"ú":{"ha":729,"x_min":63,"x_max":679,"o":"m 486 1033 q 465 1008 479 1026 q 433 963 451 989 q 392 905 414 938 q 347 839 369 872 q 420 878 385 860 q 483 913 456 897 q 531 940 511 929 q 556 957 550 951 q 569 994 569 971 q 556 1031 569 1015 q 517 1046 542 1046 q 486 1033 497 1046 m 271 242 l 271 681 l 63 681 l 63 242 q 88 128 63 175 q 156 50 113 81 q 261 5 200 19 q 394 -10 322 -10 q 603 51 528 -10 q 679 247 679 111 l 679 681 l 596 681 l 596 240 q 552 112 596 150 q 438 74 508 74 q 316 112 361 74 q 271 242 271 150 z "},"û":{"ha":729,"x_min":63,"x_max":679,"o":"m 368 993 l 219 833 l 264 833 l 396 931 l 528 833 l 575 833 l 425 993 l 368 993 m 271 242 l 271 681 l 63 681 l 63 242 q 88 128 63 175 q 156 50 113 81 q 261 5 200 19 q 394 -10 322 -10 q 603 51 528 -10 q 679 247 679 111 l 679 681 l 596 681 l 596 240 q 552 112 596 150 q 438 74 508 74 q 316 112 361 74 q 271 242 271 150 z "},"ü":{"ha":729,"x_min":63,"x_max":679,"o":"m 335 960 q 310 1020 335 996 q 250 1044 286 1044 q 190 1020 214 1044 q 165 960 165 996 q 190 899 165 924 q 250 875 214 875 q 310 899 286 875 q 335 960 335 924 m 593 960 q 569 1020 593 996 q 508 1044 544 1044 q 448 1020 472 1044 q 424 960 424 996 q 448 899 424 924 q 508 875 472 875 q 569 899 544 875 q 593 960 593 924 m 271 242 l 271 681 l 63 681 l 63 242 q 88 128 63 175 q 156 50 113 81 q 261 5 200 19 q 394 -10 322 -10 q 603 51 528 -10 q 679 247 679 111 l 679 681 l 596 681 l 596 240 q 552 112 596 150 q 438 74 508 74 q 316 112 361 74 q 271 242 271 150 z "},"ý":{"ha":761,"x_min":32,"x_max":739,"o":"m 240 681 l 32 681 l 350 88 l 171 -261 l 254 -261 l 739 681 l 656 681 l 453 288 l 240 681 m 514 1033 q 493 1008 507 1026 q 460 963 479 989 q 419 905 442 938 q 375 839 397 872 q 448 878 413 860 q 511 913 483 897 q 558 940 539 929 q 583 957 578 951 q 597 994 597 971 q 583 1031 597 1015 q 544 1046 569 1046 q 514 1033 525 1046 z "},"þ":{"ha":819,"x_min":85,"x_max":772,"o":"m 85 1042 l 85 -257 l 293 -257 l 293 0 l 388 0 q 556 29 483 0 q 676 106 628 58 q 748 215 724 154 q 772 340 772 276 q 748 465 772 404 q 676 574 724 526 q 556 651 628 622 q 388 681 483 681 l 293 681 l 293 1042 l 85 1042 m 293 83 l 293 597 l 353 597 q 437 575 400 597 q 497 517 474 553 q 533 435 521 481 q 546 340 546 389 q 534 246 546 292 q 498 164 522 200 q 438 106 474 128 q 353 83 401 83 l 293 83 z "},"ÿ":{"ha":761,"x_min":32,"x_max":739,"o":"m 354 960 q 330 1020 354 996 q 269 1044 306 1044 q 209 1020 233 1044 q 185 960 185 996 q 209 899 185 924 q 269 875 233 875 q 330 899 306 875 q 354 960 354 924 m 613 960 q 588 1020 613 996 q 528 1044 564 1044 q 467 1020 492 1044 q 443 960 443 996 q 467 899 443 924 q 528 875 492 875 q 588 899 564 875 q 613 960 613 924 m 240 681 l 32 681 l 350 88 l 171 -261 l 254 -261 l 739 681 l 656 681 l 453 288 l 240 681 z "},"":{"ha":0,"x_min":0,"x_max":0,"o":""},"":{"ha":0,"x_min":0,"x_max":0,"o":""},"":{"ha":0,"x_min":0,"x_max":0,"o":""},"":{"ha":644,"x_min":79,"x_max":565,"o":"m 565 394 l 79 394 l 79 325 l 565 325 l 565 394 z "},"":{"ha":475,"x_min":38,"x_max":453,"o":"m 453 513 l 38 513 l 38 471 l 453 471 l 453 513 m 94 435 l 94 389 l 217 389 l 128 265 l 214 265 q 253 255 239 265 q 267 229 267 244 q 262 207 267 215 q 249 188 257 199 l 100 -1 l 228 -1 l 361 172 q 377 203 372 188 q 382 236 382 219 q 357 292 382 271 q 294 313 332 313 l 258 313 l 364 435 l 94 435 m 307 1003 l 107 974 l 110 953 l 182 961 l 182 556 l 307 556 l 307 1003 z "},"":{"ha":475,"x_min":38,"x_max":453,"o":"m 453 513 l 38 513 l 38 471 l 453 471 l 453 513 m 365 433 l 263 433 l 40 160 l 40 121 l 240 121 l 240 -3 l 365 -3 l 365 121 l 418 121 l 418 167 l 365 167 l 365 433 m 307 1003 l 107 974 l 110 953 l 182 961 l 182 556 l 307 556 l 307 1003 m 240 167 l 106 167 l 240 333 l 240 167 z "},"":{"ha":475,"x_min":38,"x_max":453,"o":"m 453 508 l 38 508 l 38 467 l 453 467 l 453 508 m 92 892 l 139 892 q 161 928 144 910 q 211 947 178 947 q 265 930 247 947 q 282 885 282 913 q 273 835 282 854 q 246 793 264 815 l 82 589 l 82 554 l 407 554 l 407 600 l 232 600 l 363 767 q 393 815 382 792 q 404 878 404 839 q 358 964 404 935 q 243 993 311 993 q 179 983 206 993 q 135 959 153 974 q 106 926 117 944 q 92 892 96 908 m 96 436 l 96 390 l 218 390 l 129 267 l 215 267 q 254 256 240 267 q 268 231 268 246 q 263 208 268 217 q 250 189 258 200 l 101 0 l 229 0 l 363 174 q 378 205 374 189 q 383 238 383 221 q 358 293 383 272 q 296 314 333 314 l 260 314 l 365 436 l 96 436 z "},"":{"ha":475,"x_min":38,"x_max":453,"o":"m 453 513 l 38 513 l 38 471 l 453 471 l 453 513 m 94 997 l 94 951 l 217 951 l 128 828 l 214 828 q 253 817 239 828 q 267 792 267 807 q 262 769 267 778 q 249 750 257 761 l 100 561 l 228 561 l 361 735 q 377 766 372 750 q 382 799 382 782 q 357 854 382 833 q 294 875 332 875 l 258 875 l 364 997 l 94 997 m 367 435 l 264 435 l 42 161 l 42 122 l 242 122 l 242 -1 l 367 -1 l 367 122 l 419 122 l 419 168 l 367 168 l 367 435 m 242 168 l 107 168 l 242 335 l 242 168 z "},"":{"ha":1014,"x_min":83,"x_max":917,"o":"m 917 833 l 83 833 l 83 0 l 917 0 l 917 833 m 889 806 l 889 28 l 111 28 l 111 806 l 889 806 z "},"":{"ha":879,"x_min":47,"x_max":813,"o":"m 149 422 l 47 281 q 95 240 71 268 q 142 179 119 213 q 183 110 164 146 q 215 49 201 75 q 328 225 263 138 q 471 390 393 313 q 635 531 549 467 q 813 639 722 594 l 813 854 q 710 777 768 828 q 592 663 653 726 q 470 528 531 599 q 359 390 410 457 q 272 267 308 324 q 224 176 236 210 q 197 297 215 235 q 149 422 179 358 z "},"":{"ha":1078,"x_min":54,"x_max":1024,"o":"m 453 363 l 453 538 l 625 538 l 625 363 l 453 363 m 385 733 l 385 606 l 257 606 q 160 641 200 606 q 119 735 119 676 q 158 836 119 797 q 256 875 196 875 q 312 863 288 875 q 352 832 336 851 q 376 787 368 813 q 385 733 385 761 m 254 538 l 385 538 l 385 363 l 254 363 q 176 348 213 363 q 112 307 139 333 q 69 244 85 281 q 54 161 54 207 q 108 19 54 74 q 250 -36 163 -36 q 338 -21 300 -36 q 402 22 376 -6 q 440 85 428 49 q 453 164 453 122 l 453 294 l 625 294 l 625 164 q 638 85 625 122 q 676 22 650 49 q 740 -21 701 -6 q 828 -36 778 -36 q 969 19 915 -36 q 1024 161 1024 74 q 1008 244 1024 207 q 965 307 992 281 q 901 348 938 333 q 824 363 865 363 l 693 363 l 693 538 l 824 538 q 901 552 865 538 q 965 593 938 567 q 1008 656 992 619 q 1024 739 1024 693 q 969 881 1024 826 q 828 936 915 936 q 740 920 778 936 q 676 877 701 904 q 638 814 650 850 q 625 736 625 778 l 625 606 l 453 606 l 453 736 q 440 814 453 778 q 402 877 428 850 q 338 920 376 904 q 250 936 300 936 q 108 881 163 936 q 54 739 54 826 q 69 656 54 693 q 112 593 85 619 q 176 552 139 567 q 254 538 213 538 m 958 735 q 918 641 958 676 q 821 606 878 606 l 693 606 l 693 733 q 701 787 693 761 q 726 832 710 813 q 766 863 742 851 q 822 875 790 875 q 920 836 882 875 q 958 735 958 797 m 693 167 l 693 294 l 821 294 q 918 259 878 294 q 958 165 958 224 q 920 64 958 103 q 822 25 882 25 q 766 37 790 25 q 726 68 742 49 q 701 113 710 88 q 693 167 693 139 m 119 165 q 160 259 119 224 q 257 294 200 294 l 385 294 l 385 167 q 376 113 385 139 q 352 68 368 88 q 312 37 336 49 q 256 25 288 25 q 158 64 196 25 q 119 165 119 103 z "},"":{"ha":422,"x_min":0,"x_max":0,"o":""},"":{"ha":743,"x_min":50,"x_max":689,"o":"m 369 694 l 50 375 l 369 56 l 689 375 l 369 694 m 626 375 l 369 118 l 113 375 l 369 632 l 626 375 z "},"":{"ha":1097,"x_min":117,"x_max":1019,"o":"m 382 736 q 272 716 321 736 q 188 660 222 696 q 135 574 154 624 q 117 465 117 524 q 154 279 117 367 q 244 126 192 192 q 351 23 296 61 q 442 -15 406 -15 q 492 -5 468 -15 q 533 28 515 6 q 558 44 543 39 q 589 50 574 50 q 619 44 604 50 q 643 28 633 39 q 744 -18 681 -18 q 842 12 799 -18 q 921 85 886 42 q 980 175 956 128 q 1019 257 1004 222 q 967 282 992 265 q 922 324 942 299 q 890 381 901 349 q 878 454 878 414 q 887 518 878 490 q 910 567 896 546 q 945 608 925 589 q 989 643 965 626 q 965 681 985 664 q 919 711 946 699 q 861 731 893 724 q 800 738 829 738 q 735 728 765 738 q 683 703 704 719 q 634 673 656 681 q 592 665 613 665 q 554 674 571 665 q 508 703 538 683 q 451 728 485 719 q 382 736 418 736 m 742 929 q 683 912 713 929 q 628 867 653 894 q 587 808 603 840 q 571 743 571 775 q 574 727 571 735 q 588 719 576 719 q 651 740 621 719 q 705 792 682 761 q 742 856 728 822 q 756 917 756 890 q 742 929 756 929 z "}}}
